<?xml version="1.0" encoding="utf-8"?>
<!-- Generator: Adobe Illustrator 21.1.0, SVG Export Plug-In . SVG Version: 6.00 Build 0)  -->
<svg version="1.1" id="Layer_1" xmlns="http://www.w3.org/2000/svg" xmlns:xlink="http://www.w3.org/1999/xlink" x="0px" y="0px"
	 viewBox="0 0 372.3 160.4" style="enable-background:new 0 0 372.3 160.4;" xml:space="preserve">
<metadata><?xpacket begin="﻿" id="W5M0MpCehiHzreSzNTczkc9d"?>
<x:xmpmeta xmlns:x="adobe:ns:meta/" x:xmptk="Adobe XMP Core 5.6-c137 79.159768, 2016/08/11-13:24:42        ">
   <rdf:RDF xmlns:rdf="http://www.w3.org/1999/02/22-rdf-syntax-ns#">
      <rdf:Description rdf:about=""/>
   </rdf:RDF>
</x:xmpmeta>
                                                                                                    
                                                                                                    
                                                                                                    
                                                                                                    
                                                                                                    
                                                                                                    
                                                                                                    
                                                                                                    
                                                                                                    
                                                                                                    
                                                                                                    
                                                                                                    
                                                                                                    
                                                                                                    
                                                                                                    
                                                                                                    
                                                                                                    
                                                                                                    
                                                                                                    
                                                                                                    
                           
<?xpacket end="w"?></metadata>
<style type="text/css">
	.st0{fill:#231F20;}
	.st1{fill:#912B2A;}
	.st2{fill:#FFFFFF;}
	.st3{fill:none;}
	.st4{fill:none;stroke:#912B2A;stroke-width:1.9606;stroke-miterlimit:10;}
</style>
<g>
	<g>
		<path class="st0" d="M41.7,130.3v-2.1c6-0.4,6.2-0.8,6.2-8l-0.3-26.6h-0.2l-17.9,36.2H28L11.8,94.6h-0.2l-1,18.9
			c-0.3,5.7-0.4,8.3-0.3,10.8c0.2,3.1,2,3.5,6.8,3.9v2.1H0v-2.1c4.2-0.4,5.6-1,6.2-3.9c0.4-2.2,0.9-5,1.3-11.9l1-13.6
			c0.6-8.4,0.4-8.5-6.2-9.1v-2h11.6l16.5,33.2l17.1-33.2h12.2v2c-6.5,0.6-7,0.5-6.8,7.7l0.7,22.9c0.2,7.2,0.5,7.6,6.9,8v2.1H41.7
			V130.3z"/>
		<path class="st0" d="M90.5,130.3v-1.8c4.3-0.4,4.8-0.9,4-3.1l-3.5-8.8H76.9c-1,2.4-1.8,4.8-2.7,7.2c-1.5,3.8-0.8,4.3,4,4.7v1.8
			H64.1v-1.8c4.2-0.5,5-0.8,7.3-6l13-30.2l2.1-0.5c3.9,9.6,8.3,21.1,12.3,31c1.9,4.9,2.8,5.4,7,5.7v1.8H90.5z M84.3,98.7L84.3,98.7
			c-2.2,5.1-4.3,10.2-6.3,15.2h12L84.3,98.7z"/>
		<path class="st0" d="M147.3,130.7c-0.9,0-1.7,0-2.5-0.1c-4-0.2-6.7-1.4-9.8-5.2c-2.2-2.8-4.6-6.6-6.5-9.3
			c-1.1-1.6-2.1-2.2-5.8-2.2h-2.3v9c0,4.9,0.6,5.3,5.8,5.5v1.8h-16.6v-1.8c5.5-0.3,6-0.6,6-5.5V99.7c0-5-0.5-5.1-5.6-5.5v-1.8h15.7
			c4.4,0,7.6,0.5,10,1.9c2.6,1.5,4.4,4.2,4.4,7.6c0,5-3.3,8.2-8.2,10.1c1.2,1.9,3.9,5.7,5.8,8.3c2.4,3.1,3.5,4.3,5.1,5.9
			c1.7,1.8,3.5,2.5,4.9,2.8L147.3,130.7z M123.8,111.9c3.4,0,5.4-0.6,7.1-1.8c2.5-1.8,3.6-4,3.6-7.2c0-6.2-4.8-8.4-9.8-8.4
			c-1.9,0-3,0.3-3.5,0.6c-0.6,0.4-0.8,1.1-0.8,2.6v14.2H123.8z"/>
		<path class="st0" d="M175.9,130.3v-1.8c4.3-0.4,4.8-0.9,4-3.1l-3.5-8.8h-14.1c-1,2.4-1.8,4.8-2.7,7.2c-1.5,3.8-0.8,4.3,4,4.7v1.8
			h-14.1v-1.8c4.2-0.5,5-0.8,7.3-6l13-30.2l2.1-0.5c3.9,9.6,8.3,21.1,12.3,31c1.9,4.9,2.8,5.4,7,5.7v1.8H175.9z M169.6,98.7h-0.1
			c-2.1,5.1-4.1,10.3-6.1,15.2h12L169.6,98.7z"/>
		<path class="st0" d="M223.5,101.4c-0.6-2.8-1.2-4.2-1.9-5c-1-1.4-1.9-1.8-6.7-1.8H210v28.5c0,4.5,0.5,5.2,6.7,5.4v1.8h-18.2v-1.8
			c6-0.3,6.5-0.8,6.5-5.4V94.6h-4.5c-4.9,0-6.2,0.4-7,1.8c-0.7,0.9-1.2,2.6-1.9,5.1h-2.1c0.3-3.4,0.6-7.1,0.8-10.4h1.4
			c1,1.3,1.7,1.4,3.5,1.4h25.1c1.7,0,2.1-0.4,3-1.4h1.5c0.1,2.8,0.3,6.9,0.7,10.2L223.5,101.4z"/>
		<path class="st0" d="M273.9,94.3c-5.3,0.4-5.9,0.6-5.9,5.4v23.4c0,4.9,0.6,5,5.9,5.4v1.8h-17v-1.8c5.6-0.3,6.2-0.6,6.2-5.4v-11.5
			h-22.5v11.5c0,4.7,0.6,5,5.9,5.4v1.8h-16.6v-1.8c5.3-0.3,5.8-0.5,5.8-5.4V99.7c0-4.8-0.5-5-6-5.4v-1.8h16.4v1.8
			c-5,0.4-5.5,0.7-5.5,5.4v9.3h22.5v-9.3c0-4.7-0.5-5-5.6-5.4v-1.8h16.4L273.9,94.3L273.9,94.3z"/>
		<path class="st0" d="M318.9,110.9c0,12.7-9.6,20.2-21.3,20.2c-11.2,0-20.5-7.9-20.5-19.2c0-10.6,8.1-20.1,21.3-20.1
			C308.9,91.7,318.9,99.1,318.9,110.9z M283,110.1c0,11,6.9,18.6,16,18.6c7.2,0,13.8-5.1,13.8-16.4c0-12.3-7.5-18.4-15.9-18.4
			C289.8,94,283,99.1,283,110.1z"/>
		<path class="st0" d="M372.3,89.7c-4.1,0.2-6,1.1-6.4,3.8c-0.2,2-0.3,4.9-0.3,11.1v26.2h-2.3l-30.4-34.2h-0.2v16.3
			c0,6,0.2,9.2,0.3,11.1c0.5,3.3,2.3,4.1,7.1,4.3v2.1h-17.5v-2.1c4.2-0.1,6.1-1,6.5-4.2c0.2-2.1,0.5-5.3,0.5-11.2V98.5
			c0-4.8-0.2-4.8-1.4-6.4c-1.5-1.6-3.2-2.1-6.6-2.4v-2H332l30.1,33.4h0.2v-16.5c0-6.2-0.2-9.2-0.5-10.9c-0.4-2.9-2.2-3.8-7.2-4v-2
			h17.6L372.3,89.7L372.3,89.7z"/>
		<path class="st0" d="M96.4,158.4l-0.7-1.8c-0.4,0-0.7,0-1.1-0.1c-0.4,0-0.7,0-1.1,0c-0.3,0-0.7,0-1,0s-0.7,0-1,0.1
			c-0.3,0.7-0.5,1.3-0.8,2c-0.2,0.7-0.4,1.2-0.6,1.7c-0.1,0-0.2,0-0.4-0.1c-0.1,0-0.3,0-0.4,0s-0.3,0-0.4,0s-0.2,0-0.4,0.1l2-4.4
			c0.4-1,0.8-1.8,1.2-2.6s0.6-1.4,0.9-2s0.5-1.1,0.6-1.6c0.2-0.5,0.3-0.9,0.4-1.2c0.1,0,0.2,0,0.3,0.1c0.1,0,0.2,0,0.3,0
			c0.2,0,0.3,0,0.5-0.1c0.2,0.6,0.4,1.2,0.6,1.7c0.2,0.6,0.4,1.1,0.7,1.7c0.2,0.5,0.4,1,0.6,1.5s0.4,0.9,0.5,1.2
			c0.2,0.4,0.3,0.8,0.6,1.3c0.2,0.5,0.4,1,0.7,1.5s0.5,1,0.7,1.5s0.4,1,0.6,1.4c-0.1,0-0.3,0-0.6-0.1s-0.5,0-0.7,0s-0.5,0-0.7,0
			s-0.4,0-0.6,0.1L96.4,158.4z M93.6,151.4l-1.7,4.2c0.3,0,0.6,0,0.9,0s0.6,0,0.9,0s0.5,0,0.8,0s0.5,0,0.8-0.1L93.6,151.4z"/>
		<path class="st0" d="M102.7,157.8c0.2,0.4,0.4,0.8,0.6,1s0.4,0.5,0.6,0.6s0.4,0.2,0.7,0.3c0.2,0,0.5,0.1,0.7,0.1
			c0.3,0,0.6-0.1,0.9-0.2c0.3-0.1,0.5-0.3,0.7-0.4c0.2-0.2,0.3-0.4,0.5-0.7s0.2-0.5,0.2-0.8s-0.1-0.6-0.2-0.9s-0.2-0.4-0.4-0.6
			c-0.2-0.2-0.3-0.3-0.5-0.3s-0.3-0.1-0.4-0.2c-0.2-0.1-0.5-0.2-0.9-0.4s-0.6-0.3-0.9-0.4c-0.4-0.2-0.8-0.4-1-0.6
			c-0.3-0.2-0.5-0.4-0.7-0.7c-0.2-0.2-0.3-0.5-0.3-0.8s-0.1-0.6-0.1-1s0.1-0.8,0.2-1.2s0.3-0.8,0.6-1.1c0.3-0.3,0.7-0.6,1.2-0.8
			s1.2-0.3,1.9-0.3c0.6,0,1.1,0.1,1.6,0.2c0.4,0.1,0.8,0.3,1.3,0.5c-0.1,0.2-0.2,0.4-0.2,0.5c-0.1,0.1-0.1,0.3-0.1,0.4
			c0,0.1-0.1,0.2-0.1,0.3s-0.1,0.2-0.1,0.4h-0.2c-0.1-0.5-0.4-0.9-0.8-1.1c-0.4-0.2-0.9-0.4-1.4-0.4c-0.7,0-1.2,0.2-1.5,0.5
			c-0.3,0.4-0.5,0.8-0.5,1.3c0,0.3,0.1,0.6,0.2,0.8s0.3,0.4,0.5,0.6c0.2,0.2,0.4,0.3,0.7,0.4s0.6,0.3,1,0.4c0.3,0.1,0.6,0.2,0.8,0.3
			c0.2,0.1,0.4,0.2,0.6,0.3s0.3,0.2,0.5,0.3c0.1,0.1,0.3,0.2,0.4,0.3c0.2,0.2,0.3,0.4,0.4,0.6c0.1,0.2,0.2,0.4,0.2,0.6
			s0.1,0.4,0.1,0.6c0,0.2,0,0.3,0,0.4c0,0.4-0.1,0.9-0.2,1.3c-0.2,0.4-0.4,0.8-0.8,1.2c-0.3,0.4-0.8,0.6-1.3,0.9
			c-0.5,0.2-1.2,0.3-2,0.3c-0.4,0-0.7,0-1-0.1s-0.6-0.1-0.9-0.2s-0.5-0.2-0.7-0.3s-0.4-0.2-0.5-0.3c0.1-0.2,0.1-0.4,0.2-0.6
			c0-0.2,0.1-0.3,0.1-0.4c0-0.1,0-0.3,0.1-0.4c0-0.1,0-0.3,0.1-0.5h0.1V157.8z"/>
		<path class="st0" d="M113.6,157.8c0.2,0.4,0.4,0.8,0.6,1s0.4,0.5,0.6,0.6s0.4,0.2,0.7,0.3c0.2,0,0.5,0.1,0.7,0.1
			c0.3,0,0.6-0.1,0.9-0.2c0.3-0.1,0.5-0.3,0.7-0.4c0.2-0.2,0.3-0.4,0.5-0.7s0.2-0.5,0.2-0.8s-0.1-0.6-0.2-0.9s-0.2-0.4-0.4-0.6
			c-0.2-0.2-0.3-0.3-0.5-0.3s-0.3-0.1-0.4-0.2c-0.2-0.1-0.5-0.2-0.9-0.4s-0.6-0.3-0.9-0.4c-0.4-0.2-0.8-0.4-1-0.6
			c-0.3-0.2-0.5-0.4-0.7-0.7c-0.2-0.2-0.3-0.5-0.3-0.8s-0.1-0.6-0.1-1s0.1-0.8,0.2-1.2s0.3-0.8,0.6-1.1c0.3-0.3,0.7-0.6,1.2-0.8
			s1.2-0.3,1.9-0.3c0.6,0,1.1,0.1,1.6,0.2c0.4,0.1,0.8,0.3,1.3,0.5c-0.1,0.2-0.2,0.4-0.2,0.5c-0.1,0.1-0.1,0.3-0.1,0.4
			c0,0.1-0.1,0.2-0.1,0.3s-0.1,0.2-0.1,0.4h-0.2c-0.1-0.5-0.4-0.9-0.8-1.1c-0.4-0.2-0.9-0.4-1.4-0.4c-0.7,0-1.2,0.2-1.5,0.5
			c-0.3,0.4-0.5,0.8-0.5,1.3c0,0.3,0.1,0.6,0.2,0.8s0.3,0.4,0.5,0.6c0.2,0.2,0.4,0.3,0.7,0.4s0.6,0.3,1,0.4c0.3,0.1,0.6,0.2,0.8,0.3
			c0.2,0.1,0.4,0.2,0.6,0.3s0.3,0.2,0.5,0.3c0.1,0.1,0.3,0.2,0.4,0.3c0.2,0.2,0.3,0.4,0.4,0.6c0.1,0.2,0.2,0.4,0.2,0.6
			s0.1,0.4,0.1,0.6c0,0.2,0,0.3,0,0.4c0,0.4-0.1,0.9-0.2,1.3c-0.2,0.4-0.4,0.8-0.8,1.2c-0.3,0.4-0.8,0.6-1.3,0.9
			c-0.5,0.2-1.2,0.3-2,0.3c-0.4,0-0.7,0-1-0.1s-0.6-0.1-0.9-0.2s-0.5-0.2-0.7-0.3s-0.4-0.2-0.5-0.3c0.1-0.2,0.1-0.4,0.2-0.6
			c0-0.2,0.1-0.3,0.1-0.4c0-0.1,0-0.3,0.1-0.4c0-0.1,0-0.3,0.1-0.5h0.1V157.8z"/>
		<path class="st0" d="M126.7,153.7c0.2,0,0.5,0,0.8,0s0.7,0,1,0c0.4,0,0.7,0,1,0s0.6,0,0.8-0.1c0,0.1,0,0.2-0.1,0.3
			c0,0.1,0,0.2,0,0.3c0,0.2,0,0.4,0.1,0.6c-0.2,0-0.4,0-0.7-0.1c-0.2,0-0.4,0-0.6,0c-0.4,0-0.8,0-1.2,0s-0.8,0-1.2,0v4.6
			c0.1,0,0.3,0,0.6,0s0.6,0,1,0s0.8,0,1.2,0s0.8,0,1.2-0.1c-0.1,0.1-0.1,0.3-0.1,0.6c0,0.2,0,0.5,0.1,0.6c-1-0.1-2.1-0.1-3.1-0.1
			c-1,0-2.1,0-3.2,0.1c0-0.4,0-0.7,0.1-1.1s0-0.7,0-1.1c0-0.2,0-0.6,0-0.9c0-0.4,0-0.7,0-1.1c0-0.4,0-0.7,0-1.1c0-0.3,0-0.6,0-0.8
			s0-0.5,0-1s0-1,0-1.5c0-0.6,0-1.1,0-1.7c0-0.6,0-1.1-0.1-1.5c0.2,0,0.4,0,0.7,0c0.3,0,0.5,0,0.8,0s0.6,0,0.8,0c0.3,0,0.5,0,0.7,0
			c0.4,0,0.9,0,1.4,0s1.1,0,1.7-0.1c0,0.1,0,0.2-0.1,0.3c0,0.1,0,0.2,0,0.3c0,0.3,0,0.5,0.1,0.6l-1.6-0.1c-0.2,0-0.3,0-0.4,0
			c-0.1,0-0.3,0-0.4,0c-0.2,0-0.4,0-0.6,0s-0.5,0-0.9,0v4.1H126.7z"/>
		<path class="st0" d="M139,158c0,0.6,0,1.1,0,1.5s0.1,0.6,0.1,0.9c-0.2,0-0.5,0-0.7-0.1c-0.2,0-0.4,0-0.5,0s-0.3,0-0.5,0
			s-0.4,0-0.7,0.1c0-0.6,0.1-1.3,0.1-1.9s0.1-1.3,0.1-1.9v-4.7c0-0.3,0-0.6,0-0.9c0-0.3,0-0.6,0-1H136c0,0-0.2,0-0.4,0s-0.4,0-0.7,0
			s-0.5,0-0.8,0s-0.5,0-0.8,0.1c0.1-0.2,0.1-0.4,0.1-0.6c0-0.2,0-0.4-0.1-0.6c0.3,0,0.7,0,1.1,0.1c0.4,0,0.8,0,1.2,0s0.8,0,1.2,0
			s0.7,0,1.1,0c0.7,0,1.4,0,2.2,0c0.7,0,1.5,0,2.3-0.1c-0.1,0.3-0.1,0.5-0.1,0.6s0,0.2,0,0.3s0,0.2,0.1,0.3
			c-0.5-0.1-1.1-0.1-1.6-0.1s-1.2,0-1.8,0c0,0.3,0,0.6,0,0.9c0,0.3,0,0.6,0,1V158z"/>
		<path class="st0" d="M154.1,149.7c0.3,0.6,0.5,1.1,0.7,1.5s0.4,0.9,0.7,1.3c0.2,0.4,0.5,0.9,0.8,1.4s0.6,1.1,1,1.9l0.9,1.6
			l0.6-1.1c0.4-0.7,0.8-1.3,1.1-1.9c0.3-0.6,0.6-1.1,0.9-1.7c0.3-0.6,0.6-1.2,1-1.8c0.3-0.6,0.7-1.4,1.1-2.3c0.1,0,0.2,0.1,0.4,0.1
			c0.1,0,0.2,0,0.4-0.1l0.1,1.4c0.1,1,0.2,2,0.3,2.9c0.1,1,0.2,1.9,0.4,3c0,0.3,0.1,0.6,0.1,1c0.1,0.4,0.1,0.8,0.2,1.2
			c0.1,0.4,0.1,0.8,0.2,1.2c0.1,0.4,0.1,0.7,0.2,0.9c-0.2,0-0.4,0-0.7-0.1c-0.2,0-0.4,0-0.6,0c-0.2,0-0.3,0-0.5,0s-0.4,0-0.7,0.1
			l-0.1-0.6c0-0.1,0-0.2,0-0.4s0-0.4,0-0.7c0-0.2,0-0.4,0-0.6s0-0.3,0-0.4c0-0.1,0-0.3-0.1-0.6c0-0.3-0.1-0.6-0.1-0.9
			c0-0.3-0.1-0.7-0.1-1c0-0.4-0.1-0.7-0.1-1s-0.1-0.6-0.1-0.9c0-0.3,0-0.4-0.1-0.6c-0.3,0.5-0.6,1.1-1,1.7c-0.4,0.6-0.7,1.3-1.1,2
			c-0.4,0.7-0.7,1.4-1.1,2.1c-0.3,0.7-0.6,1.3-0.9,1.9c-0.1,0-0.1,0-0.2,0s-0.1,0-0.2,0s-0.1,0-0.2,0c-0.1,0-0.1,0-0.2,0
			c-0.2-0.3-0.3-0.6-0.5-0.9c-0.1-0.3-0.3-0.6-0.5-0.9c-0.2-0.3-0.4-0.7-0.6-1.1c-0.2-0.4-0.5-0.9-0.8-1.6c-0.1-0.1-0.2-0.3-0.3-0.6
			c-0.2-0.3-0.3-0.6-0.5-0.9s-0.4-0.6-0.5-0.9c-0.2-0.3-0.3-0.5-0.3-0.6c-0.2,1.2-0.3,2.4-0.4,3.7c-0.1,1.3-0.2,2.6-0.3,3.8
			c-0.3-0.1-0.6-0.1-0.8-0.1c-0.1,0-0.3,0-0.4,0c-0.1,0-0.2,0-0.3,0.1l0.1-0.5c0.1-0.4,0.2-0.8,0.2-1.4s0.2-1.2,0.3-2
			s0.2-1.5,0.3-2.2c0.1-0.8,0.2-1.5,0.3-2.2s0.2-1.4,0.3-1.9s0.1-1,0.2-1.4c0.1,0,0.3,0.1,0.4,0.1c0.1,0,0.1,0,0.2,0
			c0.1,0,0.1,0,0.2,0L154.1,149.7z"/>
		<path class="st0" d="M175.4,158.4l-0.7-1.8c-0.4,0-0.7,0-1.1-0.1c-0.4,0-0.7,0-1.1,0c-0.3,0-0.7,0-1,0s-0.7,0-1,0.1
			c-0.3,0.7-0.5,1.3-0.8,2c-0.2,0.7-0.4,1.2-0.6,1.7c-0.1,0-0.2,0-0.4-0.1c-0.1,0-0.3,0-0.4,0c-0.1,0-0.3,0-0.4,0
			c-0.1,0-0.2,0-0.4,0.1l2-4.4c0.4-1,0.8-1.8,1.2-2.6s0.6-1.4,0.9-2c0.3-0.6,0.5-1.1,0.6-1.6c0.2-0.5,0.3-0.9,0.4-1.2
			c0.1,0,0.2,0,0.3,0.1c0.1,0,0.2,0,0.3,0c0.2,0,0.3,0,0.5-0.1c0.2,0.6,0.4,1.2,0.6,1.7c0.2,0.6,0.4,1.1,0.7,1.7
			c0.2,0.5,0.4,1,0.6,1.5c0.2,0.5,0.4,0.9,0.5,1.2c0.2,0.4,0.3,0.8,0.6,1.3c0.2,0.5,0.4,1,0.7,1.5s0.5,1,0.7,1.5s0.4,1,0.6,1.4
			c-0.1,0-0.3,0-0.6-0.1s-0.5,0-0.7,0s-0.5,0-0.7,0s-0.4,0-0.6,0.1L175.4,158.4z M172.6,151.4l-1.7,4.2c0.3,0,0.6,0,0.9,0
			c0.3,0,0.6,0,0.9,0c0.3,0,0.5,0,0.8,0s0.5,0,0.8-0.1L172.6,151.4z"/>
		<path class="st0" d="M181.8,153.4c0-0.8,0-1.6,0-2.4c0-0.8,0-1.6,0-2.4c0.1,0,0.1,0,0.2,0c0.1,0,0.1,0,0.2,0c0.1,0,0.1,0,0.2,0
			c0.1,0,0.1,0,0.2,0c0.4,0.4,0.8,0.9,1.2,1.3c0.4,0.4,0.8,0.9,1.2,1.3c0.4,0.4,0.9,0.9,1.3,1.3c0.5,0.5,0.9,0.9,1.4,1.4l2,2
			c0.2,0.2,0.3,0.3,0.4,0.4c0.1,0.1,0.3,0.2,0.5,0.4v-3.8c0-0.7,0-1.4-0.1-2.2c0-0.7-0.1-1.4-0.1-2.1c0.1,0,0.2,0,0.3,0.1
			s0.2,0,0.4,0s0.3,0,0.4,0s0.2,0,0.3-0.1c0,0.5-0.1,1-0.1,1.4s0,0.9-0.1,1.3s0,0.9,0,1.4s0,1,0,1.7c0,0.2,0,0.6,0,1s0,0.8,0,1.2
			s0,0.8,0,1.2s0,0.7,0,0.9c0,0.1,0,0.2,0,0.4c0,0.1,0,0.3,0,0.5s0,0.3,0,0.5s0,0.3,0,0.4c-0.1,0-0.1,0-0.2,0s-0.1,0-0.2,0
			s-0.1,0-0.2,0s-0.1,0-0.2,0c-0.4-0.4-0.8-0.8-1.2-1.3c-0.5-0.5-0.9-1-1.4-1.5s-1-1-1.5-1.5s-1-1-1.5-1.5s-0.9-0.9-1.4-1.3
			s-0.8-0.7-1.1-1c0,0.6,0,1.1,0,1.6s0,0.9,0,1.3c0,0.4,0,0.8,0,1.2s0,0.8,0,1.3c0,0.2,0,0.5,0,0.6c0,0.2,0,0.3,0,0.5s0,0.4,0,0.6
			s0,0.6,0.1,0.9c-0.1,0-0.2,0-0.4-0.1c-0.1,0-0.3,0-0.4,0c-0.1,0-0.2,0-0.4,0c-0.1,0-0.2,0-0.3,0.1l0.1-2.4c0-0.1,0-0.3,0-0.5
			s0-0.4,0-0.6c0-0.2,0-0.4,0-0.6c0-0.2,0-0.4,0-0.5v-2.4H181.8z"/>
		<path class="st0" d="M202.7,158.4l-0.7-1.8c-0.4,0-0.7,0-1.1-0.1c-0.4,0-0.7,0-1.1,0c-0.3,0-0.7,0-1,0s-0.7,0-1,0.1
			c-0.3,0.7-0.5,1.3-0.8,2c-0.2,0.7-0.4,1.2-0.6,1.7c-0.1,0-0.2,0-0.4-0.1c-0.1,0-0.3,0-0.4,0c-0.1,0-0.3,0-0.4,0
			c-0.1,0-0.2,0-0.4,0.1l2-4.4c0.4-1,0.8-1.8,1.2-2.6s0.6-1.4,0.9-2c0.3-0.6,0.5-1.1,0.6-1.6s0.3-0.9,0.4-1.2c0.1,0,0.2,0,0.3,0.1
			s0.2,0,0.3,0c0.2,0,0.3,0,0.5-0.1c0.2,0.6,0.4,1.2,0.6,1.7c0.2,0.6,0.4,1.1,0.7,1.7c0.2,0.5,0.4,1,0.6,1.5
			c0.2,0.5,0.4,0.9,0.5,1.2c0.2,0.4,0.3,0.8,0.6,1.3c0.2,0.5,0.4,1,0.7,1.5c0.2,0.5,0.5,1,0.7,1.5s0.4,1,0.6,1.4
			c-0.1,0-0.3,0-0.6-0.1s-0.5,0-0.7,0s-0.5,0-0.7,0s-0.4,0-0.6,0.1L202.7,158.4z M199.9,151.4l-1.7,4.2c0.3,0,0.6,0,0.9,0
			c0.3,0,0.6,0,0.9,0c0.3,0,0.5,0,0.8,0s0.5,0,0.8-0.1L199.9,151.4z"/>
		<path class="st0" d="M207.8,154.7c0-0.9,0.1-1.6,0.4-2.4c0.3-0.7,0.7-1.4,1.2-2s1.2-1,2.1-1.3s1.8-0.5,2.9-0.5
			c0.7,0,1.4,0.1,2,0.2c0.6,0.1,1.3,0.3,2,0.7l-0.5,1.7h-0.2c-0.1-0.1-0.1-0.2-0.3-0.4c-0.1-0.2-0.3-0.4-0.5-0.5
			c-0.2-0.2-0.6-0.3-1-0.5c-0.4-0.1-0.9-0.2-1.5-0.2c-1.4,0-2.5,0.4-3.2,1.3c-0.7,0.9-1.1,2.1-1.1,3.8c0,0.6,0.1,1.3,0.2,1.9
			s0.4,1.2,0.8,1.7c0.1,0.2,0.3,0.4,0.5,0.6c0.2,0.2,0.4,0.3,0.7,0.5s0.5,0.3,0.8,0.3s0.7,0.1,1,0.1c0.4,0,0.8,0,1.2-0.1
			s0.8-0.2,1.2-0.5c0-0.3,0-0.5,0-0.7s0-0.3,0-0.4c0-0.1,0-0.2,0-0.2s0-0.1,0-0.2c0-0.4,0-0.8,0-1.2s0-0.8-0.1-1.2
			c0.2,0,0.4,0,0.6,0.1s0.4,0,0.6,0c0.2,0,0.4,0,0.6,0c0.1,0,0.3-0.1,0.5-0.1c0,0.2,0,0.4-0.1,0.6c0,0.3,0,0.6,0,0.8
			c0,0.3,0,0.6,0,0.8s0,0.4,0,0.6c0,0.3,0,0.6,0,0.8s0,0.5,0,0.7c-0.7,0.4-1.5,0.7-2.4,0.9s-1.7,0.3-2.5,0.3s-1.6-0.1-2.3-0.4
			s-1.4-0.6-1.9-1.1s-1-1.1-1.3-1.8C208,156.5,207.8,155.6,207.8,154.7z"/>
		<path class="st0" d="M225.5,153.7c0.2,0,0.5,0,0.8,0s0.7,0,1,0c0.4,0,0.7,0,1,0s0.6,0,0.8-0.1c0,0.1,0,0.2-0.1,0.3
			c0,0.1,0,0.2,0,0.3c0,0.2,0,0.4,0.1,0.6c-0.2,0-0.4,0-0.7-0.1c-0.2,0-0.4,0-0.6,0c-0.4,0-0.8,0-1.2,0s-0.8,0-1.2,0v4.6
			c0.1,0,0.3,0,0.6,0s0.6,0,1,0s0.8,0,1.2,0s0.8,0,1.2-0.1c-0.1,0.1-0.1,0.3-0.1,0.6c0,0.2,0,0.5,0.1,0.6c-1-0.1-2.1-0.1-3.1-0.1
			s-2.1,0-3.2,0.1c0-0.4,0-0.7,0.1-1.1s0-0.7,0-1.1c0-0.2,0-0.6,0-0.9c0-0.4,0-0.7,0-1.1s0-0.7,0-1.1c0-0.3,0-0.6,0-0.8s0-0.5,0-1
			s0-1,0-1.5c0-0.6,0-1.1,0-1.7c0-0.6,0-1.1-0.1-1.5c0.2,0,0.4,0,0.7,0s0.5,0,0.8,0s0.6,0,0.8,0c0.3,0,0.5,0,0.7,0
			c0.4,0,0.9,0,1.4,0s1.1,0,1.7-0.1c0,0.1,0,0.2-0.1,0.3c0,0.1,0,0.2,0,0.3c0,0.3,0,0.5,0.1,0.6l-1.6-0.1c-0.2,0-0.3,0-0.4,0
			s-0.3,0-0.4,0c-0.2,0-0.4,0-0.6,0c-0.2,0-0.5,0-0.9,0v4.1H225.5z"/>
		<path class="st0" d="M235.7,149.7c0.3,0.6,0.5,1.1,0.7,1.5s0.4,0.9,0.7,1.3s0.5,0.9,0.8,1.4s0.6,1.1,1,1.9l0.9,1.6l0.6-1.1
			c0.4-0.7,0.8-1.3,1.1-1.9c0.3-0.6,0.6-1.1,0.9-1.7c0.3-0.6,0.6-1.2,1-1.8c0.3-0.6,0.7-1.4,1.1-2.3c0.1,0,0.2,0.1,0.4,0.1
			c0.1,0,0.2,0,0.4-0.1l0.1,1.4c0.1,1,0.2,2,0.3,2.9c0.1,1,0.2,1.9,0.4,3c0,0.3,0.1,0.6,0.1,1c0.1,0.4,0.1,0.8,0.2,1.2
			c0.1,0.4,0.1,0.8,0.2,1.2c0.1,0.4,0.1,0.7,0.2,0.9c-0.2,0-0.4,0-0.7-0.1c-0.2,0-0.4,0-0.6,0c-0.2,0-0.3,0-0.5,0s-0.4,0-0.7,0.1
			l-0.1-0.6c0-0.1,0-0.2,0-0.4s0-0.4,0-0.7c0-0.2,0-0.4,0-0.6c0-0.2,0-0.3,0-0.4c0-0.1,0-0.3-0.1-0.6c0-0.3-0.1-0.6-0.1-0.9
			c0-0.3-0.1-0.7-0.1-1c0-0.4-0.1-0.7-0.1-1s-0.1-0.6-0.1-0.9c0-0.3,0-0.4-0.1-0.6c-0.3,0.5-0.6,1.1-1,1.7c-0.4,0.6-0.7,1.3-1.1,2
			c-0.4,0.7-0.7,1.4-1.1,2.1c-0.3,0.7-0.6,1.3-0.9,1.9c-0.1,0-0.1,0-0.2,0c-0.1,0-0.1,0-0.2,0c-0.1,0-0.1,0-0.2,0s-0.1,0-0.2,0
			c-0.2-0.3-0.3-0.6-0.5-0.9c-0.1-0.3-0.3-0.6-0.5-0.9c-0.2-0.3-0.4-0.7-0.6-1.1c-0.2-0.4-0.5-0.9-0.8-1.6c-0.1-0.1-0.2-0.3-0.3-0.6
			c-0.2-0.3-0.3-0.6-0.5-0.9s-0.4-0.6-0.5-0.9s-0.3-0.5-0.3-0.6c-0.2,1.2-0.3,2.4-0.4,3.7c-0.1,1.3-0.2,2.6-0.3,3.8
			c-0.3-0.1-0.6-0.1-0.8-0.1c-0.1,0-0.3,0-0.4,0c-0.1,0-0.2,0-0.3,0.1l0.1-0.5c0.1-0.4,0.2-0.8,0.2-1.4c0.1-0.6,0.2-1.2,0.3-2
			c0.1-0.7,0.2-1.5,0.3-2.2s0.2-1.5,0.3-2.2s0.2-1.4,0.3-1.9c0.1-0.6,0.1-1,0.2-1.4c0.1,0,0.3,0.1,0.4,0.1c0.1,0,0.1,0,0.2,0
			c0.1,0,0.1,0,0.2,0L235.7,149.7z"/>
		<path class="st0" d="M252.8,153.7c0.2,0,0.5,0,0.8,0s0.7,0,1,0c0.4,0,0.7,0,1,0s0.6,0,0.8-0.1c0,0.1,0,0.2-0.1,0.3
			c0,0.1,0,0.2,0,0.3c0,0.2,0,0.4,0.1,0.6c-0.2,0-0.4,0-0.7-0.1c-0.2,0-0.4,0-0.6,0c-0.4,0-0.8,0-1.2,0s-0.8,0-1.2,0v4.6
			c0.1,0,0.3,0,0.6,0s0.6,0,1,0s0.8,0,1.2,0s0.8,0,1.2-0.1c-0.1,0.1-0.1,0.3-0.1,0.6c0,0.2,0,0.5,0.1,0.6c-1-0.1-2.1-0.1-3.1-0.1
			s-2.1,0-3.2,0.1c0-0.4,0-0.7,0.1-1.1s0-0.7,0-1.1c0-0.2,0-0.6,0-0.9c0-0.4,0-0.7,0-1.1s0-0.7,0-1.1c0-0.3,0-0.6,0-0.8s0-0.5,0-1
			s0-1,0-1.5c0-0.6,0-1.1,0-1.7c0-0.6,0-1.1-0.1-1.5c0.2,0,0.4,0,0.7,0s0.5,0,0.8,0s0.6,0,0.8,0c0.3,0,0.5,0,0.7,0
			c0.4,0,0.9,0,1.4,0s1.1,0,1.7-0.1c0,0.1,0,0.2-0.1,0.3c0,0.1,0,0.2,0,0.3c0,0.3,0,0.5,0.1,0.6l-1.6-0.1c-0.2,0-0.3,0-0.4,0
			s-0.3,0-0.4,0c-0.2,0-0.4,0-0.6,0c-0.2,0-0.5,0-0.9,0v4.1H252.8z"/>
		<path class="st0" d="M260.9,153.4c0-0.8,0-1.6,0-2.4c0-0.8,0-1.6,0-2.4c0.1,0,0.1,0,0.2,0s0.1,0,0.2,0s0.1,0,0.2,0s0.1,0,0.2,0
			c0.4,0.4,0.8,0.9,1.2,1.3s0.8,0.9,1.2,1.3c0.4,0.4,0.9,0.9,1.3,1.3s0.9,0.9,1.4,1.4l2,2c0.2,0.2,0.3,0.3,0.4,0.4
			c0.1,0.1,0.3,0.2,0.5,0.4v-3.8c0-0.7,0-1.4-0.1-2.2s-0.1-1.4-0.1-2.1c0.1,0,0.2,0,0.3,0.1s0.2,0,0.4,0c0.2,0,0.3,0,0.4,0
			s0.2,0,0.3-0.1c0,0.5-0.1,1-0.1,1.4s0,0.9-0.1,1.3s0,0.9,0,1.4s0,1,0,1.7c0,0.2,0,0.6,0,1s0,0.8,0,1.2s0,0.8,0,1.2s0,0.7,0,0.9
			c0,0.1,0,0.2,0,0.4c0,0.1,0,0.3,0,0.5s0,0.3,0,0.5s0,0.3,0,0.4c-0.1,0-0.1,0-0.2,0s-0.1,0-0.2,0s-0.1,0-0.2,0s-0.1,0-0.2,0
			c-0.4-0.4-0.8-0.8-1.2-1.3c-0.5-0.5-0.9-1-1.4-1.5s-1-1-1.5-1.5s-1-1-1.5-1.5s-0.9-0.9-1.4-1.3c-0.4-0.4-0.8-0.7-1.1-1
			c0,0.6,0,1.1,0,1.6s0,0.9,0,1.3c0,0.4,0,0.8,0,1.2s0,0.8,0,1.3c0,0.2,0,0.5,0,0.6s0,0.3,0,0.5s0,0.4,0,0.6c0,0.2,0,0.6,0.1,0.9
			c-0.1,0-0.2,0-0.4-0.1s-0.3,0-0.4,0s-0.2,0-0.4,0c-0.1,0-0.2,0-0.3,0.1l0.1-2.4c0-0.1,0-0.3,0-0.5s0-0.4,0-0.6c0-0.2,0-0.4,0-0.6
			c0-0.2,0-0.4,0-0.5v-2.4H260.9z"/>
		<path class="st0" d="M279.8,158c0,0.6,0,1.1,0,1.5c0,0.3,0.1,0.6,0.1,0.9c-0.2,0-0.5,0-0.7-0.1c-0.2,0-0.4,0-0.5,0s-0.3,0-0.5,0
			s-0.4,0-0.7,0.1c0-0.6,0.1-1.3,0.1-1.9c0-0.7,0.1-1.3,0.1-1.9v-4.7c0-0.3,0-0.6,0-0.9c0-0.3,0-0.6,0-1h-0.8c0,0-0.2,0-0.4,0
			s-0.4,0-0.7,0c-0.3,0-0.5,0-0.8,0s-0.5,0-0.8,0.1c0.1-0.2,0.1-0.4,0.1-0.6c0-0.2,0-0.4-0.1-0.6c0.3,0,0.7,0,1.1,0.1
			c0.4,0,0.8,0,1.2,0c0.4,0,0.8,0,1.2,0c0.4,0,0.7,0,1.1,0c0.7,0,1.4,0,2.2,0c0.7,0,1.5,0,2.3-0.1c-0.1,0.3-0.1,0.5-0.1,0.6
			s0,0.2,0,0.3s0,0.2,0.1,0.3c-0.5-0.1-1.1-0.1-1.6-0.1s-1.2,0-1.8,0c0,0.3,0,0.6,0,0.9s0,0.6,0,1v6.1H279.8z"/>
	</g>
	<g>
		<path class="st1" d="M184.1,16.6c5.9,0,11.9,2.2,16.4,6.7s6.7,10.5,6.7,16.4s-2.2,11.9-6.7,16.4c-4.5,4.6-10.5,6.8-16.4,6.8
			s-11.9-2.2-16.4-6.7S161,45.7,161,39.8s2.2-11.9,6.7-16.4C172.2,18.8,178.2,16.6,184.1,16.6z"/>
		<g>
			<path class="st2" d="M198.5,27.6c0.2,0.7-0.2-0.4-0.1-0.4c0.1,0,0.2,1.6,0.1,1.8c-0.3,0.5-1.1,1.3-1.5,1.8
				c-0.6,0.7-3.1,2.3-3.5,2.3s-0.7-0.2-0.9-0.3c-0.1,0-0.4-0.1-1.7-0.2c-1.3,0-2.1-0.5-2.1-0.5s-0.4,0.5-0.8,1
				c-0.4,0.6-1.3,1.1-1.3,1.1c-0.2,0.9-1.2,2.2-1.8,2.9c0,0,1.6-0.2,2.9,0c1.3,0.2,2.4,0.6,2.6,0.6c0.2,0.1,1.1,0.1,1.5,0.5
				s0.5,1.2,0.5,1.3s0,0.3,0.5,1.3c0.4,0.9,3.4,5.5,3.7,5.8c0.3,0.4,1.3,1.6,2.6,2.2c1.3,0.6,2.5,0.8,2.7,0.8c0.1,0,0.6,0,0.6,0.3
				c-0.1,0.2-0.7,0.3-1.5,0.3s-1.4-0.5-2.2-0.4c-0.8,0-1.6,0.4-2.2,0.2c-0.6-0.1-0.5-1.3-0.6-1.9c-0.1-0.5-0.2-0.7-1.2-1.6
				c-1-0.9-1.9-0.9-3.5-2c-1.6-1.2-0.8-3.7-1.2-3.9s-1.7,0.7-3.6,1.1c-1.9,0.4-3.3-0.1-3.3-0.1s-0.3,1-1.1,2.2s-2.3,3-2.5,3.3
				c-0.2,0.2-0.7,1.2-0.8,1.3s-0.7,0.2-0.8,0.2c-0.2,0-0.3,0-0.7,0.1c-0.5,0.1-1.6,0.7-3,1.2c-1.4,0.6-4,1.6-4.2,1.6
				c-0.2,0.1-0.5,0.3-0.7,0.8c-0.2,0.4-0.4,1.9-0.4,2.3c0,0.4,0.5,1.4,0.6,1.5s0.6,0.3-0.1,0.4c-0.8,0.1-1.2-1.3-1.3-1.9
				c-0.1-0.5-0.3-0.8-0.8-1.3s-0.7-1.2-0.4-1.8c0.3-0.5,1.3-0.6,1.6-0.6c0.4,0,0.5-0.2,1-0.6c0.5-0.4,1.6-1.4,1.8-1.8
				c0.3-0.4,0.3-0.7,1.9-1.7c1.6-1,3.4-0.2,3.6-0.4c0.2-0.1-0.1-1.4,0.4-3.2s1.3-2.9,1.3-2.9s-0.9-0.8-0.3-2.7
				c0.6-1.8,2.4-2.6,2.4-2.6s0.4-1,0.4-1.8s0.2-1.8,0.2-1.8c-0.1-0.4-0.1-0.3-0.2-1.1c-0.4,0.2-3.4,1.4-3.5,1.8
				c-0.1,0.1,0,0.7-0.3,1.2s-2.5,3.3-2.6,3.7s0.2,0.9,0.2,1.3c0.1,0.5,0,0.6,0.1,1.2c0.1,0.3,0.1,0.5-0.1,0.5
				c-0.2,0-0.4-1.1-0.6-1.1c-0.2-0.1-0.3,0.2-0.6,0.4c-0.4,0.3-0.4,0.3-0.6,0.6c-0.1,0.1-0.3,0.7-0.5,0.9c-0.1,0.1-0.4-0.1-0.5-0.3
				s0.1-1,0.2-1.2c0.1-0.1,0.2-0.5,0.5-1s0.2-0.7,0.5-1.3s0.2-0.8,0.7-2c0.4-1.2,0.9-2.3,1.1-2.7c0.4-0.9-0.2-0.7,1-1.5
				c0.9-0.6,1.3-1.7,4.1-3c0.1-0.1,0.8-0.6,1.2-0.8c1.4-0.9,3,0.3,3.3,0.2c0.2,0,0.8-0.9,0.8-0.9c0,0.1-0.9-0.1-0.7-1
				c-0.2-0.4,0-1.3,0.3-1.7c0.3-0.3,0.4-0.9,1.1-1c0.4-0.4,0.4-0.4,1-0.3c0.2-0.2,0.6-0.2,1.4,0.1c1.2,0.2,0.7,0.2,1,0.5
				c0,0,0.6-0.1,0.9,0.5c0,0.1,0.6,0.5,0.5,0.6c-0.2,0.2,0,0.1-0.1,0.5c-0.1,0.2-0.4,0.3-0.6,0.4c-0.1,0-0.1,0-0.2,0.1
				c0,0.1,0.1,0.2,0.1,0.3c0,0.1,0.4,1.4,0.3,1.5c-0.1,0.1-0.7,0-0.7,0s0,0.1,0,0.2c-0.1,0.1,0,0.3-0.1,0.3s-0.1,0.2-0.1,0.3
				c0,0.1,0.1,0.1,0.1,0.3c0,0.2-0.2,0.3-0.3,0.3s-0.1,0-0.2,0c-0.3,0-0.2-0.1-0.6-0.2c-0.4-0.1-0.9-0.6-0.9-0.6l-0.2,0.8
				c0,0.1,0.3,0.2,0.7,0.3c0.6,0.2,1.2,0.3,1.5,0.4c0.2,0.1,0.4,0.4,0.7,0.6c0.2,0.2,0.7,0.2,1.4,0.5s1.6,1.1,1.8,1
				c0.3-0.1,1.2-0.8,1.8-1.2C196.1,29.4,198.5,27.5,198.5,27.6z"/>
		</g>
		<g>
			<path class="st3" d="M183.1,9.9c0.2,0,0.3,0,0.5,0c7.4-0.1,14.9,2.6,20.7,8.2c0,0,0,0,0.1,0.1c0,0,0,0,0.1,0.1
				c5.7,5.6,8.6,13,8.7,20.5c0,0.2,0,0.3,0,0.5s0,0.3,0,0.5c0.1,7.4-2.6,14.9-8.2,20.7c0,0,0,0-0.1,0.1c0,0,0,0-0.1,0.1
				c-5.6,5.7-13,8.6-20.5,8.7c-0.2,0-0.3,0-0.5,0s-0.3,0-0.5,0c-7.4,0.1-14.9-2.6-20.7-8.2c0,0,0,0-0.1-0.1c0,0,0,0-0.1-0.1
				c-5.7-5.6-8.6-13-8.7-20.5c0-0.2,0-0.3,0-0.5s0-0.3,0-0.5c-0.1-7.4,2.6-14.9,8.2-20.7c0,0,0,0,0.1-0.1c0,0,0,0,0.1-0.1
				c5.6-5.7,13-8.6,20.5-8.7C182.8,9.9,182.9,9.9,183.1,9.9z"/>
			<g>
				<path class="st1" d="M171.5,14.4c0.5,0.4,1,0.6,1.6,0.8c0.9,0.3,1.9,0.4,2.9,0.3c0.8-0.1,2.3-0.3,2.9-0.9
					c-0.7-1-2.3-1.6-3.5-1.9c-1.1-0.3-2.4-0.3-3.5,0.1c-0.4,0.2-0.9,0.5-0.9,0.9C171.1,14,171.3,14.2,171.5,14.4z"/>
				<path class="st1" d="M173.8,11.9c2-1,3.6-3,4-5.2l0,0c-1.2,0.2-2.3,0.6-3.4,1.2c-1,0.6-1.9,1.5-2.4,2.6
					C171.2,12.2,172.5,12.5,173.8,11.9z"/>
			</g>
			<path class="st1" d="M166.4,17.3c0.5,0.3,1.1,0.4,1.7,0.5c1,0.1,2,0,2.9-0.3c0.8-0.2,2.2-0.8,2.6-1.5c-0.9-0.9-2.6-1.1-3.8-1.1
				c-1.2-0.1-2.4,0.2-3.4,0.8c-0.4,0.2-0.8,0.6-0.6,1.1C165.9,17,166.2,17.2,166.4,17.3z"/>
			<path class="st1" d="M168.2,14.4c1.8-1.4,2.9-3.7,2.8-5.9l0,0c-1.1,0.5-2.2,1.1-3,1.9c-0.9,0.8-1.5,1.9-1.8,3.1
				C165.7,15.2,167,15.3,168.2,14.4z"/>
			<path class="st1" d="M161.4,20.8c0.1,0.2,0.4,0.4,0.7,0.4c0.6,0.2,1.2,0.2,1.8,0.1c1-0.1,1.9-0.4,2.8-0.9c0.7-0.4,2-1.2,2.2-2
				c-1.1-0.7-2.8-0.5-3.9-0.3c-1.2,0.2-2.3,0.7-3.1,1.5C161.5,19.9,161.2,20.4,161.4,20.8z"/>
			<path class="st1" d="M163.2,18c1.5-1.7,2-4.2,1.5-6.4l0,0c-1,0.7-1.9,1.5-2.6,2.5c-0.7,1-1.1,2.2-1.1,3.4
				C161,19.3,162.3,19.1,163.2,18z"/>
			<path class="st1" d="M158.1,24.4c-0.2,0.4-0.4,0.9-0.2,1.2c0.2,0.2,0.5,0.3,0.7,0.3c0.6,0,1.2-0.1,1.8-0.3
				c0.9-0.3,1.8-0.8,2.5-1.5c0.6-0.5,1.7-1.6,1.8-2.4c-1.2-0.4-2.8,0.1-3.9,0.5C159.7,22.7,158.7,23.4,158.1,24.4z"/>
			<path class="st1" d="M159.1,22.6c1.1-2,1.1-4.5,0.1-6.6l0,0c-0.8,0.9-1.5,1.9-2,3c-0.4,1.1-0.6,2.4-0.4,3.5
				C157.2,24.3,158.4,23.8,159.1,22.6z"/>
			<path class="st1" d="M155.5,31.1c0.2,0.2,0.5,0.2,0.8,0.1c0.6-0.1,1.2-0.3,1.7-0.6c0.9-0.5,1.6-1.2,2.2-2
				c0.5-0.6,1.4-1.9,1.2-2.7c-1.2-0.2-2.7,0.7-3.7,1.3c-1,0.6-1.8,1.5-2.3,2.6C155.2,30.3,155.1,30.8,155.5,31.1z"/>
			<path class="st1" d="M156,27.9c0.6-2.2,0.2-4.6-1.2-6.4l0,0c-0.6,1-1.1,2.1-1.3,3.3c-0.2,1.2-0.1,2.4,0.4,3.5
				C154.5,30,155.6,29.2,156,27.9z"/>
			<path class="st1" d="M155.1,36.9c0.6-0.2,1.1-0.6,1.5-1c0.7-0.7,1.3-1.5,1.7-2.4c0.3-0.7,0.9-2.2,0.6-2.9
				c-1.2,0.1-2.5,1.2-3.4,2.1c-0.8,0.8-1.5,1.9-1.7,3.1c-0.1,0.4,0,1,0.4,1.2C154.5,37.1,154.8,37,155.1,36.9z"/>
			<path class="st1" d="M152,34.6c1,1.5,2,0.5,2.1-0.9c0.2-2.3-0.8-4.6-2.5-6l0,0c-0.4,1.1-0.7,2.3-0.6,3.5
				C151,32.4,151.3,33.6,152,34.6z"/>
			<path class="st1" d="M154.3,43c0.3,0.1,0.5,0,0.8-0.2c0.5-0.3,0.9-0.8,1.3-1.3c0.6-0.8,1-1.7,1.2-2.7c0.2-0.8,0.5-2.3,0-3
				c-1.2,0.4-2.2,1.7-2.9,2.7c-0.6,1-1,2.2-1,3.3C153.7,42.3,153.8,42.9,154.3,43z"/>
			<path class="st1" d="M151.6,41.1c1.3,1.2,2,0.1,1.8-1.3c-0.3-2.2-1.7-4.3-3.7-5.4l0,0c-0.2,1.2-0.2,2.4,0.1,3.6
				C150.1,39.2,150.7,40.3,151.6,41.1z"/>
			<path class="st1" d="M155.5,48.8c0.3,0,0.5-0.2,0.7-0.4c0.4-0.4,0.7-0.9,1-1.5c0.4-0.9,0.6-1.9,0.6-2.9c0-0.8,0-2.3-0.6-3
				c-1.1,0.6-1.8,2.1-2.2,3.2c-0.4,1.1-0.6,2.3-0.3,3.5C154.8,48.3,155.1,48.8,155.5,48.8z"/>
			<path class="st1" d="M152.5,47.6c1.5,0.9,2-0.3,1.5-1.6c-0.8-2.1-2.6-3.9-4.8-4.5l0,0c0.1,1.2,0.4,2.4,0.9,3.5
				C150.7,46,151.5,47,152.5,47.6z"/>
			<path class="st1" d="M158,54.3c0.3,0,0.5-0.3,0.6-0.5c0.3-0.5,0.5-1.1,0.7-1.7c0.2-1,0.2-2,0-2.9c-0.2-0.8-0.5-2.3-1.2-2.8
				c-1,0.8-1.3,2.5-1.5,3.6c-0.2,1.2-0.1,2.4,0.4,3.5C157.2,54,157.5,54.4,158,54.3z"/>
			<path class="st1" d="M155.9,51.8c-1.2-1.9-3.3-3.2-5.6-3.4l0,0c0.3,1.2,0.8,2.3,1.6,3.2c0.7,0.9,1.7,1.7,2.9,2.1
				C156.5,54.3,156.7,53,155.9,51.8z"/>
			<path class="st1" d="M160.4,58.6c0.3,0.4,0.7,0.7,1.1,0.5c0.3-0.1,0.4-0.4,0.5-0.6c0.2-0.6,0.3-1.2,0.3-1.8c0-1-0.2-2-0.6-2.9
				c-0.3-0.7-1-2.1-1.8-2.4c-0.8,1-0.8,2.7-0.7,3.9C159.3,56.5,159.7,57.7,160.4,58.6z"/>
			<path class="st1" d="M159,57.1c-1.6-1.6-3.9-2.5-6.2-2.2l0,0c0.6,1.1,1.3,2,2.2,2.8s2.1,1.3,3.2,1.5
				C160,59.5,159.9,58.1,159,57.1z"/>
			<path class="st1" d="M162.9,55.9c-0.5,1.1-0.2,2.8,0.1,3.9c0.3,1.1,0.9,2.2,1.8,3c0.3,0.3,0.8,0.5,1.2,0.3
				c0.2-0.1,0.3-0.4,0.4-0.7c0.1-0.6,0.1-1.2-0.1-1.8c-0.2-1-0.6-1.9-1.2-2.7C164.6,57.3,163.7,56.1,162.9,55.9z"/>
			<path class="st1" d="M162.8,63.9c1.8-0.2,1.4-1.4,0.3-2.2c-1.9-1.3-4.4-1.6-6.5-0.8l0,0c0.8,0.9,1.7,1.7,2.8,2.3
				C160.4,63.7,161.6,64,162.8,63.9z"/>
			<path class="st1" d="M169.3,61.2c-0.6-0.5-1.8-1.5-2.6-1.5c-0.3,1.2,0.4,2.8,0.9,3.8s1.4,2,2.4,2.5c0.4,0.2,0.9,0.3,1.2,0
				c0.2-0.2,0.2-0.5,0.2-0.8c0-0.6-0.2-1.2-0.4-1.7C170.6,62.7,170,61.9,169.3,61.2z"/>
			<path class="st1" d="M168,65.3c-2.1-0.9-4.6-0.6-6.5,0.5l0,0c1,0.7,2,1.3,3.2,1.7c1.2,0.3,2.4,0.4,3.6,0
				C169.9,67,169.3,65.8,168,65.3z"/>
			<path class="st1" d="M175.7,68.2c0.4,0.1,1,0.1,1.2-0.2c0.2-0.2,0.1-0.5,0.1-0.8c-0.1-0.6-0.4-1.1-0.8-1.6
				c-0.6-0.8-1.3-1.5-2.2-2c-0.7-0.4-2-1.1-2.9-0.9c0,1.3,0.9,2.6,1.7,3.6C173.6,67.1,174.5,67.9,175.7,68.2z"/>
			<path class="st1" d="M173.6,67.8c-2.2-0.4-4.6,0.3-6.3,1.9l0,0c1.1,0.5,2.3,0.9,3.5,1s2.4-0.1,3.5-0.7
				C175.9,69.1,175,68.1,173.6,67.8z"/>
			<path class="st1" d="M181.6,66.4c-0.7-0.7-1.6-1.2-2.5-1.5c-0.8-0.3-2.2-0.7-3-0.3c0.2,1.2,1.5,2.4,2.4,3.1s2,1.3,3.2,1.3
				c0.4,0,1-0.1,1.1-0.5c0.1-0.3,0-0.5-0.1-0.8C182.5,67.3,182.1,66.8,181.6,66.4z"/>
			<path class="st1" d="M179.6,69.1c-2.3,0.1-4.5,1.3-5.8,3.2l0,0c1.2,0.3,2.4,0.4,3.6,0.2c1.2-0.2,2.4-0.6,3.3-1.4
				C182.1,69.9,181.1,69.1,179.6,69.1z"/>
			<path class="st1" d="M191.7,15.7c1,0.1,2,0,2.9-0.3c0.6-0.2,1.1-0.5,1.6-0.8c0.2-0.2,0.4-0.4,0.4-0.7c0-0.4-0.4-0.7-0.9-0.9
				c-1.1-0.4-2.3-0.4-3.5-0.1s-2.8,0.9-3.5,1.9C189.4,15.4,190.9,15.6,191.7,15.7z"/>
			<path class="st1" d="M193.9,12.1c1.3,0.6,2.5,0.3,1.8-1.4c-0.5-1.1-1.4-2-2.4-2.6c-1-0.6-2.2-1-3.4-1.2l0,0
				C190.3,9.1,191.8,11.1,193.9,12.1z"/>
			<path class="st1" d="M201.1,15.8c-1-0.6-2.2-0.9-3.4-0.8c-1.2,0.1-2.9,0.3-3.8,1.1c0.4,0.7,1.9,1.3,2.6,1.5
				c0.9,0.3,1.9,0.4,2.9,0.3c0.6-0.1,1.2-0.2,1.7-0.5c0.2-0.1,0.5-0.3,0.6-0.6C201.9,16.4,201.5,16,201.1,15.8z"/>
			<path class="st1" d="M199.5,14.5c1.1,0.9,2.4,0.8,2-1c-0.3-1.2-0.9-2.2-1.8-3.1c-0.9-0.8-1.9-1.5-3-1.9l0,0
				C196.6,10.9,197.7,13.1,199.5,14.5z"/>
			<path class="st1" d="M198.8,18.5c0.2,0.8,1.6,1.6,2.3,2c0.9,0.5,1.8,0.8,2.8,0.9c0.6,0.1,1.2,0,1.8-0.1c0.3-0.1,0.5-0.2,0.7-0.4
				c0.2-0.4-0.1-0.9-0.4-1.2c-0.9-0.8-2-1.3-3.2-1.5C201.5,18,199.8,17.9,198.8,18.5z"/>
			<path class="st1" d="M206.7,17.6c0-1.2-0.5-2.4-1.1-3.4c-0.7-1-1.6-1.8-2.6-2.5l0,0c-0.5,2.2,0.1,4.6,1.5,6.4
				C205.4,19.2,206.7,19.4,206.7,17.6z"/>
			<path class="st1" d="M202.9,21.9c0.1,0.8,1.2,1.9,1.8,2.4c0.7,0.6,1.6,1.1,2.6,1.4c0.6,0.2,1.2,0.3,1.8,0.3
				c0.3,0,0.6-0.1,0.7-0.3c0.3-0.3,0.1-0.9-0.2-1.2c-0.7-1-1.7-1.7-2.8-2.1C205.7,21.9,204.1,21.4,202.9,21.9z"/>
			<path class="st1" d="M210.9,22.6c0.2-1.2,0-2.4-0.4-3.5c-0.5-1.1-1.2-2.1-2-3l0,0c-1,2-0.9,4.6,0.2,6.6
				C209.3,23.9,210.5,24.3,210.9,22.6z"/>
			<path class="st1" d="M206.3,26c-0.1,0.8,0.8,2.1,1.2,2.7c0.6,0.8,1.3,1.5,2.2,1.9c0.5,0.3,1.1,0.5,1.7,0.6c0.3,0,0.6,0,0.8-0.1
				c0.3-0.3,0.3-0.8,0.1-1.2c-0.5-1.1-1.3-2-2.3-2.6C209.1,26.6,207.6,25.8,206.3,26z"/>
			<path class="st1" d="M214,28.3c0.5-1.1,0.5-2.4,0.3-3.5c-0.2-1.2-0.7-2.3-1.3-3.3l0,0c-1.4,1.8-1.8,4.3-1.2,6.4
				C212.2,29.3,213.3,30,214,28.3z"/>
			<path class="st1" d="M211.2,36c0.4,0.4,1,0.7,1.5,1c0.3,0.1,0.6,0.2,0.8,0c0.4-0.2,0.4-0.8,0.3-1.2c-0.2-1.2-0.8-2.2-1.7-3
				c-0.8-0.8-2.1-1.9-3.4-2c-0.3,0.8,0.3,2.2,0.7,2.9C209.9,34.6,210.5,35.4,211.2,36z"/>
			<path class="st1" d="M213.7,33.8c0.1,1.4,1,2.3,2.1,0.9c0.7-1,1-2.2,1.1-3.4c0-1.2-0.2-2.4-0.6-3.5l0,0
				C214.5,29.2,213.5,31.5,213.7,33.8z"/>
			<path class="st1" d="M213.5,43c0.4-0.1,0.6-0.6,0.6-1.1c0-1.2-0.4-2.3-1-3.3c-0.7-1-1.7-2.3-2.9-2.7c-0.4,0.7-0.2,2.2,0,3
				c0.2,1,0.6,1.9,1.2,2.7c0.4,0.5,0.8,0.9,1.3,1.2C213,43,213.3,43.1,213.5,43z"/>
			<path class="st1" d="M214.4,39.9c-0.2,1.4,0.5,2.5,1.8,1.3c0.9-0.8,1.5-1.9,1.7-3.1c0.3-1.2,0.3-2.4,0.1-3.6l0,0
				C216.1,35.5,214.7,37.6,214.4,39.9z"/>
			<path class="st1" d="M212.3,48.9c0.4,0,0.7-0.5,0.8-0.9c0.3-1.1,0.1-2.4-0.3-3.5c-0.4-1.1-1.2-2.6-2.3-3.2
				c-0.6,0.6-0.6,2.1-0.6,3c0,1,0.2,2,0.6,2.9c0.2,0.5,0.6,1.1,1,1.5C211.8,48.7,212,48.9,212.3,48.9z"/>
			<path class="st1" d="M218.5,41.5c-2.2,0.7-4,2.4-4.8,4.5c-0.5,1.3,0,2.6,1.5,1.6c1-0.6,1.8-1.6,2.4-2.7
				C218.2,43.9,218.5,42.7,218.5,41.5L218.5,41.5z"/>
			<path class="st1" d="M209.9,54.4c0.4,0.1,0.8-0.4,1-0.8c0.5-1.1,0.6-2.3,0.4-3.5c-0.2-1.2-0.6-2.8-1.5-3.6
				c-0.7,0.5-1.1,2-1.2,2.8c-0.2,1-0.2,2,0,2.9c0.1,0.6,0.3,1.2,0.7,1.7C209.4,54.1,209.6,54.3,209.9,54.4z"/>
			<path class="st1" d="M211.9,51.8c-0.7,1.2-0.5,2.5,1.2,1.9c1.1-0.4,2.1-1.2,2.9-2.1c0.7-0.9,1.2-2.1,1.6-3.2l0,0
				C215.3,48.6,213.1,49.9,211.9,51.8z"/>
			<path class="st1" d="M206.1,54c-0.4,0.9-0.6,1.9-0.6,2.9c0,0.6,0.1,1.2,0.3,1.8c0.1,0.3,0.3,0.5,0.5,0.6c0.4,0.2,0.8-0.2,1.1-0.5
				c0.7-0.9,1.1-2.1,1.1-3.3c0.1-1.2,0-2.9-0.7-3.9C207.1,51.8,206.4,53.2,206.1,54z"/>
			<path class="st1" d="M208.9,57.2c-1,1-1,2.3,0.7,2.1c1.2-0.2,2.3-0.7,3.2-1.5s1.6-1.8,2.2-2.8l0,0
				C212.8,54.7,210.5,55.5,208.9,57.2z"/>
			<path class="st1" d="M202.8,58.1c-0.6,0.8-1,1.7-1.2,2.7c-0.1,0.6-0.2,1.2-0.1,1.8c0,0.3,0.1,0.6,0.4,0.7c0.4,0.2,0.9,0,1.2-0.3
				c0.9-0.8,1.5-1.8,1.8-3s0.6-2.8,0.1-3.9C204.2,56.2,203.2,57.4,202.8,58.1z"/>
			<path class="st1" d="M204.8,61.8c-1.2,0.8-1.5,2.1,0.3,2.2c1.2,0.1,2.4-0.2,3.5-0.8s2-1.4,2.7-2.3l0,0
				C209.2,60.2,206.7,60.5,204.8,61.8z"/>
			<path class="st1" d="M198,66.2c1-0.6,1.8-1.5,2.4-2.5c0.5-1.1,1.2-2.6,0.9-3.8c-0.8,0-2,1-2.6,1.5c-0.7,0.7-1.3,1.5-1.7,2.4
				c-0.2,0.6-0.4,1.1-0.4,1.7c0,0.3,0,0.6,0.2,0.8C197,66.6,197.6,66.4,198,66.2z"/>
			<path class="st1" d="M199.9,65.4c-1.3,0.5-1.9,1.7-0.2,2.2c1.2,0.3,2.4,0.3,3.6,0c1.2-0.3,2.2-0.9,3.2-1.7l0,0
				C204.5,64.7,202,64.6,199.9,65.4z"/>
			<path class="st1" d="M193.9,63.7c-0.8,0.5-1.6,1.2-2.2,2c-0.4,0.5-0.6,1-0.8,1.6c-0.1,0.3-0.1,0.6,0.1,0.8
				c0.2,0.4,0.8,0.3,1.2,0.2c1.1-0.3,2.1-1.1,2.9-2c0.7-0.9,1.7-2.3,1.7-3.6C196,62.6,194.6,63.3,193.9,63.7z"/>
			<path class="st1" d="M194.3,68c-1.4,0.3-2.2,1.3-0.6,2.1c1.1,0.6,2.3,0.8,3.5,0.7c1.2-0.1,2.4-0.5,3.4-1l0,0
				C198.9,68.3,196.5,67.5,194.3,68z"/>
			<path class="st1" d="M191.8,64.7c-0.8-0.4-2.2,0.1-3,0.3c-0.9,0.3-1.8,0.8-2.5,1.5c-0.4,0.4-0.8,0.9-1.1,1.4
				c-0.1,0.2-0.2,0.5-0.1,0.8c0.2,0.4,0.7,0.5,1.1,0.5c1.2-0.1,2.3-0.6,3.2-1.4C190.3,67.1,191.6,66,191.8,64.7z"/>
			<path class="st1" d="M188.3,69.3c-1.4,0-2.4,0.8-1.1,2c0.9,0.8,2.1,1.2,3.3,1.4c1.2,0.2,2.4,0,3.6-0.2l0,0
				C192.8,70.5,190.5,69.3,188.3,69.3z"/>
		</g>
		<path class="st4" d="M184,1.9c0.2,0,0.4,0,0.6,0c9.5,0,19,3.6,26.3,10.8c0,0,0,0,0.1,0.1c0,0,0,0,0.1,0.1
			c7.2,7.3,10.8,16.8,10.8,26.3c0,0.2,0,0.4,0,0.6c0,0.2,0,0.4,0,0.6c0,9.5-3.6,19-10.8,26.3c0,0,0,0-0.1,0.1c0,0,0,0-0.1,0.1
			c-7.3,7.2-16.8,10.8-26.3,10.8c-0.2,0-0.4,0-0.6,0c-0.2,0-0.4,0-0.6,0c-9.5,0-19-3.6-26.3-10.8c0,0,0,0-0.1-0.1c0,0,0,0-0.1-0.1
			c-7.2-7.3-10.8-16.8-10.8-26.3c0-0.2,0-0.4,0-0.6c0-0.2,0-0.4,0-0.6c0-9.5,3.6-19,10.8-26.3c0,0,0,0,0.1-0.1c0,0,0,0,0.1-0.1
			c7.3-7.2,16.8-10.8,26.3-10.8C183.6,1.9,183.8,1.9,184,1.9z"/>
		<path class="st3" d="M184,3.5c0.2,0,0.4,0,0.6,0c9.1,0,18.2,3.4,25.2,10.3c0,0,0,0,0.1,0.1c0,0,0,0,0.1,0.1
			c6.9,7,10.3,16.1,10.3,25.2c0,0.2,0,0.4,0,0.6c0,0.2,0,0.4,0,0.6c0,9.1-3.4,18.2-10.3,25.2c0,0,0,0-0.1,0.1c0,0,0,0-0.1,0.1
			c-7,6.9-16.1,10.3-25.2,10.3c-0.2,0-0.4,0-0.6,0c-0.2,0-0.4,0-0.6,0c-9.1,0-18.2-3.4-25.2-10.3c0,0,0,0-0.1-0.1c0,0,0,0-0.1-0.1
			c-6.9-7-10.3-16.1-10.3-25.2c0-0.2,0-0.4,0-0.6c0-0.2,0-0.4,0-0.6c0-9.1,3.4-18.2,10.3-25.2c0,0,0,0,0.1-0.1c0,0,0,0,0.1-0.1
			c7-6.9,16.1-10.3,25.2-10.3C183.6,3.5,183.8,3.5,184,3.5z"/>
		<g>
			<g>
				<g>
					<path class="st1" d="M210.9,13.8c0.4-0.4,1-0.4,1.4,0s0.3,1-0.1,1.4c-0.4,0.4-1,0.4-1.4,0C210.4,14.7,210.4,14.2,210.9,13.8z"
						/>
				</g>
				<g>
					<path class="st1" d="M213,16.2c0.5-0.4,1.1-0.3,1.4,0.2c0.3,0.5,0.2,1-0.2,1.4c-0.5,0.4-1,0.3-1.4-0.2
						C212.4,17.1,212.5,16.5,213,16.2z"/>
				</g>
				<g>
					<path class="st1" d="M214.8,18.7c0.5-0.3,1.1-0.2,1.4,0.3c0.3,0.5,0.2,1-0.4,1.4c-0.5,0.3-1.1,0.2-1.4-0.3
						C214.2,19.6,214.3,19.1,214.8,18.7z"/>
				</g>
				<g>
					<path class="st1" d="M216.5,21.5c0.5-0.3,1.1-0.1,1.4,0.4c0.3,0.5,0.1,1-0.5,1.3c-0.5,0.3-1.1,0.1-1.4-0.4
						C215.8,22.3,216,21.7,216.5,21.5z"/>
				</g>
				<g>
					<path class="st1" d="M217.9,24.3c0.6-0.2,1.1,0,1.3,0.5s0,1-0.6,1.3c-0.5,0.2-1.1,0-1.3-0.5C217.1,25.1,217.3,24.6,217.9,24.3z
						"/>
				</g>
				<g>
					<path class="st1" d="M219,27.3c0.6-0.2,1.1,0.1,1.3,0.6s-0.1,1-0.7,1.2c-0.6,0.2-1.1-0.1-1.3-0.6C218.2,28,218.5,27.5,219,27.3
						z"/>
				</g>
				<g>
					<path class="st1" d="M219.9,30.4c0.6-0.1,1.1,0.2,1.2,0.7c0.1,0.6-0.2,1-0.8,1.2c-0.6,0.1-1.1-0.1-1.2-0.7
						S219.3,30.5,219.9,30.4z"/>
				</g>
				<g>
					<path class="st1" d="M220.5,33.5c0.6-0.1,1.1,0.3,1.1,0.8c0.1,0.6-0.3,1-0.9,1.1c-0.6,0.1-1.1-0.2-1.1-0.8
						S219.9,33.6,220.5,33.5z"/>
				</g>
				<g>
					<path class="st1" d="M220.9,36.7c0.6,0,1,0.4,1.1,0.9c0,0.6-0.4,1-1,1s-1-0.3-1.1-0.9C219.9,37.1,220.3,36.7,220.9,36.7z"/>
				</g>
			</g>
			<g>
				<g>
					<path class="st1" d="M158,12.9c-0.4-0.4-0.4-1,0-1.4s1-0.3,1.4,0.1c0.4,0.4,0.4,1,0,1.4C159,13.3,158.4,13.3,158,12.9z"/>
				</g>
				<g>
					<path class="st1" d="M160.4,10.8c-0.4-0.5-0.3-1.1,0.2-1.4s1-0.2,1.4,0.2c0.4,0.5,0.3,1-0.2,1.4
						C161.3,11.3,160.7,11.2,160.4,10.8z"/>
				</g>
				<g>
					<path class="st1" d="M163,8.9c-0.3-0.5-0.2-1.1,0.3-1.4s1-0.2,1.4,0.4c0.3,0.5,0.2,1.1-0.3,1.4C163.8,9.5,163.3,9.4,163,8.9z"
						/>
				</g>
				<g>
					<path class="st1" d="M165.7,7.2c-0.3-0.5-0.1-1.1,0.4-1.4s1-0.1,1.3,0.5c0.3,0.5,0.1,1.1-0.4,1.4S166,7.8,165.7,7.2z"/>
				</g>
				<g>
					<path class="st1" d="M168.6,5.8c-0.2-0.6,0-1.1,0.5-1.3s1,0,1.3,0.6c0.2,0.5,0,1.1-0.5,1.3C169.3,6.6,168.8,6.4,168.6,5.8z"/>
				</g>
				<g>
					<path class="st1" d="M171.5,4.7c-0.2-0.6,0.1-1.1,0.6-1.3s1,0.1,1.2,0.7s-0.1,1.1-0.6,1.3C172.2,5.5,171.7,5.2,171.5,4.7z"/>
				</g>
				<g>
					<path class="st1" d="M174.6,3.8c-0.1-0.6,0.2-1.1,0.7-1.2c0.6-0.1,1,0.2,1.2,0.8c0.1,0.6-0.1,1.1-0.7,1.2
						C175.2,4.7,174.7,4.4,174.6,3.8z"/>
				</g>
				<g>
					<path class="st1" d="M177.7,3.2c-0.1-0.6,0.3-1.1,0.8-1.1c0.6-0.1,1,0.3,1.1,0.9s-0.2,1.1-0.8,1.1
						C178.2,4.2,177.8,3.8,177.7,3.2z"/>
				</g>
				<g>
					<path class="st1" d="M181.2,2.9c0-0.6,0.4-1,0.9-1.1c0.6,0,1,0.4,1,1s-0.3,1-0.9,1.1C181.6,3.9,181.2,3.4,181.2,2.9z"/>
				</g>
			</g>
			<g>
				<g>
					<path class="st1" d="M157.1,65.7c-0.4,0.4-1,0.4-1.4,0s-0.3-1,0.1-1.4c0.4-0.4,1-0.4,1.4,0S157.5,65.3,157.1,65.7z"/>
				</g>
				<g>
					<path class="st1" d="M155,63.3c-0.5,0.4-1.1,0.3-1.4-0.2c-0.3-0.5-0.2-1,0.2-1.4c0.5-0.4,1-0.3,1.4,0.2
						C155.6,62.4,155.5,63,155,63.3z"/>
				</g>
				<g>
					<path class="st1" d="M153.1,60.7c-0.5,0.3-1.1,0.2-1.4-0.3c-0.3-0.5-0.2-1,0.4-1.4c0.5-0.3,1.1-0.2,1.4,0.3
						C153.8,59.9,153.6,60.4,153.1,60.7z"/>
				</g>
				<g>
					<path class="st1" d="M151.5,58c-0.5,0.3-1.1,0.1-1.4-0.4c-0.3-0.5-0.1-1,0.5-1.3c0.5-0.3,1.1-0.1,1.4,0.4
						C152.2,57.2,152,57.7,151.5,58z"/>
				</g>
				<g>
					<path class="st1" d="M150.1,55.2c-0.6,0.2-1.1,0-1.3-0.5s0-1,0.6-1.3c0.5-0.2,1.1,0,1.3,0.5C150.9,54.4,150.6,54.9,150.1,55.2z
						"/>
				</g>
				<g>
					<path class="st1" d="M148.9,52.2c-0.6,0.2-1.1-0.1-1.3-0.6s0.1-1,0.7-1.2c0.6-0.2,1.1,0.1,1.3,0.6
						C149.8,51.5,149.5,52,148.9,52.2z"/>
				</g>
				<g>
					<path class="st1" d="M148,49.1c-0.6,0.1-1.1-0.2-1.2-0.7c-0.1-0.6,0.2-1,0.8-1.2c0.6-0.1,1.1,0.1,1.2,0.7
						C148.9,48.5,148.6,49,148,49.1z"/>
				</g>
				<g>
					<path class="st1" d="M147.4,46c-0.6,0.1-1.1-0.3-1.1-0.8c-0.1-0.6,0.3-1,0.9-1.1c0.6-0.1,1.1,0.2,1.1,0.8
						C148.4,45.5,148,45.9,147.4,46z"/>
				</g>
				<g>
					<path class="st1" d="M147.1,42.8c-0.6,0-1-0.4-1.1-0.9c0-0.6,0.4-1,1-1s1,0.3,1.1,0.9C148.1,42.4,147.7,42.8,147.1,42.8z"/>
				</g>
			</g>
			<g>
				<g>
					<path class="st1" d="M209.9,66.6c0.4,0.4,0.4,1,0,1.4s-1,0.3-1.4-0.1s-0.4-1,0-1.4C209,66.1,209.5,66.2,209.9,66.6z"/>
				</g>
				<g>
					<path class="st1" d="M207.5,68.7c0.4,0.5,0.3,1.1-0.2,1.4s-1,0.2-1.4-0.2c-0.4-0.5-0.3-1,0.2-1.4
						C206.6,68.2,207.2,68.3,207.5,68.7z"/>
				</g>
				<g>
					<path class="st1" d="M205,70.6c0.3,0.5,0.2,1.1-0.3,1.4s-1,0.2-1.4-0.4c-0.3-0.5-0.2-1.1,0.3-1.4
						C204.1,69.9,204.7,70.1,205,70.6z"/>
				</g>
				<g>
					<path class="st1" d="M202.2,72.3c0.3,0.5,0.1,1.1-0.4,1.4s-1,0.1-1.3-0.5c-0.3-0.5-0.1-1.1,0.4-1.4S202,71.7,202.2,72.3z"/>
				</g>
				<g>
					<path class="st1" d="M199.4,73.7c0.2,0.6,0,1.1-0.5,1.3c-0.5,0.2-1,0-1.3-0.6c-0.2-0.5,0-1.1,0.5-1.3
						C198.6,72.9,199.2,73.1,199.4,73.7z"/>
				</g>
				<g>
					<path class="st1" d="M196.4,74.8c0.2,0.6-0.1,1.1-0.6,1.3c-0.5,0.2-1-0.1-1.2-0.7s0.1-1.1,0.6-1.3S196.2,74.2,196.4,74.8z"/>
				</g>
				<g>
					<path class="st1" d="M193.3,75.7c0.1,0.6-0.2,1.1-0.7,1.2c-0.6,0.1-1-0.2-1.2-0.8c-0.1-0.6,0.1-1.1,0.7-1.2
						S193.2,75.1,193.3,75.7z"/>
				</g>
				<g>
					<path class="st1" d="M190.2,76.3c0.1,0.6-0.3,1.1-0.8,1.1c-0.6,0.1-1-0.3-1.1-0.9s0.2-1.1,0.8-1.1
						C189.7,75.3,190.1,75.7,190.2,76.3z"/>
				</g>
				<g>
					<path class="st1" d="M186.8,76.6c0,0.6-0.4,1-0.9,1.1c-0.6,0-1-0.4-1-1s0.3-1,0.9-1.1C186.4,75.6,186.8,76.1,186.8,76.6z"/>
				</g>
			</g>
			<g>
				<g>
					<path class="st1" d="M208.5,13c-0.4-0.4-0.4-1,0-1.4s1-0.5,1.4-0.1s0.4,1,0,1.4S209,13.3,208.5,13z"/>
				</g>
				<g>
					<path class="st1" d="M206.2,11c-0.5-0.4-0.5-0.9-0.2-1.4c0.4-0.5,0.9-0.6,1.4-0.2c0.5,0.3,0.5,0.9,0.2,1.4
						C207.2,11.2,206.6,11.3,206.2,11z"/>
				</g>
				<g>
					<path class="st1" d="M203.6,9.2c-0.5-0.3-0.6-0.9-0.3-1.3c0.3-0.5,0.9-0.7,1.4-0.4c0.5,0.3,0.6,0.9,0.3,1.4
						S204.1,9.5,203.6,9.2z"/>
				</g>
				<g>
					<path class="st1" d="M200.9,7.7c-0.5-0.3-0.7-0.8-0.4-1.4c0.3-0.5,0.8-0.7,1.3-0.5c0.5,0.3,0.7,0.8,0.4,1.4
						C202,7.8,201.4,8,200.9,7.7z"/>
				</g>
				<g>
					<path class="st1" d="M198.1,6.4c-0.6-0.2-0.7-0.8-0.5-1.3c0.2-0.6,0.7-0.8,1.3-0.6c0.5,0.2,0.7,0.8,0.5,1.3
						C199.2,6.4,198.6,6.6,198.1,6.4z"/>
				</g>
				<g>
					<path class="st1" d="M195.2,5.4c-0.6-0.2-0.8-0.7-0.6-1.3s0.7-0.9,1.2-0.7s0.8,0.7,0.6,1.3C196.2,5.2,195.7,5.5,195.2,5.4z"/>
				</g>
				<g>
					<path class="st1" d="M192.2,4.6c-0.6-0.1-0.9-0.6-0.7-1.2c0.1-0.6,0.6-0.9,1.2-0.8c0.6,0.1,0.9,0.6,0.7,1.2
						S192.7,4.7,192.2,4.6z"/>
				</g>
				<g>
					<path class="st1" d="M189.1,4.1c-0.6-0.1-0.9-0.6-0.8-1.1c0.1-0.6,0.5-1,1.1-0.9s0.9,0.5,0.8,1.1
						C190.1,3.8,189.7,4.2,189.1,4.1z"/>
				</g>
				<g>
					<path class="st1" d="M185.8,3.8c-0.6,0-1-0.5-0.9-1.1c0-0.6,0.4-1,1-1s1,0.5,0.9,1.1C186.8,3.4,186.4,3.9,185.8,3.8z"/>
				</g>
			</g>
			<g>
				<g>
					<path class="st1" d="M157.2,15.2c-0.4,0.4-1,0.4-1.4,0s-0.5-1-0.1-1.4s1-0.4,1.4,0C157.5,14.2,157.6,14.7,157.2,15.2z"/>
				</g>
				<g>
					<path class="st1" d="M155.2,17.5c-0.4,0.5-0.9,0.5-1.4,0.2c-0.5-0.4-0.6-0.9-0.2-1.4c0.3-0.5,0.9-0.5,1.4-0.2
						C155.5,16.5,155.6,17.1,155.2,17.5z"/>
				</g>
				<g>
					<path class="st1" d="M153.5,20.1c-0.3,0.5-0.9,0.6-1.4,0.3c-0.5-0.3-0.7-0.9-0.4-1.4s0.9-0.6,1.4-0.3
						C153.6,19.1,153.8,19.6,153.5,20.1z"/>
				</g>
				<g>
					<path class="st1" d="M151.9,22.8c-0.3,0.5-0.8,0.7-1.4,0.4c-0.5-0.3-0.7-0.8-0.5-1.3c0.3-0.5,0.8-0.7,1.4-0.4
						C152,21.7,152.2,22.3,151.9,22.8z"/>
				</g>
				<g>
					<path class="st1" d="M150.6,25.6c-0.2,0.6-0.8,0.7-1.3,0.5c-0.6-0.2-0.8-0.7-0.6-1.3c0.2-0.5,0.8-0.7,1.3-0.5
						C150.6,24.6,150.9,25.1,150.6,25.6z"/>
				</g>
				<g>
					<path class="st1" d="M149.6,28.5c-0.2,0.6-0.7,0.8-1.3,0.6c-0.6-0.2-0.9-0.7-0.7-1.2s0.7-0.8,1.3-0.6
						C149.5,27.5,149.8,28,149.6,28.5z"/>
				</g>
				<g>
					<path class="st1" d="M148.8,31.5c-0.1,0.6-0.6,0.9-1.2,0.7c-0.6-0.1-0.9-0.6-0.8-1.2c0.1-0.6,0.6-0.9,1.2-0.7
						C148.6,30.5,148.9,31,148.8,31.5z"/>
				</g>
				<g>
					<path class="st1" d="M148.3,34.6c-0.1,0.6-0.6,0.9-1.1,0.8c-0.6-0.1-1-0.5-0.9-1.1s0.5-0.9,1.1-0.8
						C148,33.6,148.4,34,148.3,34.6z"/>
				</g>
				<g>
					<path class="st1" d="M148.1,37.7c0,0.6-0.5,1-1.1,0.9c-0.6,0-1-0.4-1-1s0.5-1,1.1-0.9C147.7,36.7,148.1,37.1,148.1,37.7z"/>
				</g>
			</g>
			<g>
				<g>
					<path class="st1" d="M159.4,66.5c0.4,0.4,0.4,1,0,1.4s-1,0.5-1.4,0.1s-0.4-1,0-1.4C158.4,66.2,159,66.1,159.4,66.5z"/>
				</g>
				<g>
					<path class="st1" d="M161.8,68.5c0.5,0.4,0.5,0.9,0.2,1.4c-0.4,0.5-0.9,0.6-1.4,0.2c-0.5-0.3-0.5-0.9-0.2-1.4
						C160.7,68.3,161.3,68.2,161.8,68.5z"/>
				</g>
				<g>
					<path class="st1" d="M164.3,70.3c0.5,0.3,0.6,0.9,0.3,1.4s-0.9,0.7-1.4,0.4c-0.5-0.3-0.6-0.9-0.3-1.4
						C163.3,70.1,163.8,69.9,164.3,70.3z"/>
				</g>
				<g>
					<path class="st1" d="M167,71.8c0.5,0.3,0.7,0.8,0.4,1.4c-0.3,0.5-0.8,0.7-1.3,0.5c-0.5-0.3-0.7-0.8-0.4-1.4
						S166.5,71.5,167,71.8z"/>
				</g>
				<g>
					<path class="st1" d="M169.8,73.1c0.6,0.2,0.7,0.8,0.5,1.3c-0.2,0.6-0.7,0.8-1.3,0.6c-0.5-0.2-0.7-0.8-0.5-1.3
						C168.8,73.1,169.3,72.9,169.8,73.1z"/>
				</g>
				<g>
					<path class="st1" d="M172.8,74.1c0.6,0.2,0.8,0.7,0.6,1.3c-0.2,0.6-0.7,0.9-1.2,0.7c-0.5-0.2-0.8-0.7-0.6-1.3
						C171.7,74.2,172.2,73.9,172.8,74.1z"/>
				</g>
				<g>
					<path class="st1" d="M175.7,74.9c0.6,0.1,0.9,0.6,0.7,1.2c-0.1,0.6-0.6,0.9-1.2,0.8c-0.6-0.1-0.9-0.6-0.7-1.2
						C174.7,75.1,175.2,74.8,175.7,74.9z"/>
				</g>
				<g>
					<path class="st1" d="M178.8,75.4c0.6,0.1,0.9,0.6,0.8,1.1c-0.1,0.6-0.5,1-1.1,0.9s-0.9-0.5-0.8-1.1
						C177.8,75.7,178.2,75.3,178.8,75.4z"/>
				</g>
				<g>
					<path class="st1" d="M182.1,75.7c0.6,0,1,0.5,0.9,1.1c0,0.6-0.4,1-1,1s-1-0.5-0.9-1.1C181.2,76.1,181.6,75.6,182.1,75.7z"/>
				</g>
			</g>
			<g>
				<g>
					<path class="st1" d="M210.8,64.3c0.4-0.4,1-0.4,1.4,0s0.5,1,0.1,1.4s-1,0.4-1.4,0C210.4,65.3,210.4,64.7,210.8,64.3z"/>
				</g>
				<g>
					<path class="st1" d="M212.7,61.9c0.4-0.5,0.9-0.5,1.4-0.2c0.5,0.4,0.6,0.9,0.2,1.4c-0.3,0.5-0.9,0.5-1.4,0.2
						C212.5,63,212.4,62.4,212.7,61.9z"/>
				</g>
				<g>
					<path class="st1" d="M214.5,59.4c0.3-0.5,0.9-0.6,1.4-0.3s0.7,0.9,0.4,1.4s-0.9,0.6-1.4,0.3C214.3,60.4,214.2,59.9,214.5,59.4z
						"/>
				</g>
				<g>
					<path class="st1" d="M216,56.7c0.3-0.5,0.8-0.7,1.4-0.4c0.5,0.3,0.7,0.8,0.5,1.3c-0.3,0.5-0.8,0.7-1.4,0.4
						C216,57.7,215.8,57.2,216,56.7z"/>
				</g>
				<g>
					<path class="st1" d="M217.3,53.9c0.2-0.6,0.8-0.7,1.3-0.5c0.6,0.2,0.8,0.7,0.6,1.3c-0.2,0.5-0.8,0.7-1.3,0.5
						C217.3,54.9,217.1,54.4,217.3,53.9z"/>
				</g>
				<g>
					<path class="st1" d="M218.3,51c0.2-0.6,0.7-0.8,1.3-0.6s0.9,0.7,0.7,1.2s-0.7,0.8-1.3,0.6C218.5,52,218.2,51.5,218.3,51z"/>
				</g>
				<g>
					<path class="st1" d="M219.1,48c0.1-0.6,0.6-0.9,1.2-0.7c0.6,0.1,0.9,0.6,0.8,1.2c-0.1,0.6-0.6,0.9-1.2,0.7
						C219.3,49,219,48.5,219.1,48z"/>
				</g>
				<g>
					<path class="st1" d="M219.6,44.9c0.1-0.6,0.6-0.9,1.1-0.8c0.6,0.1,1,0.5,0.9,1.1s-0.5,0.9-1.1,0.8
						C219.9,45.9,219.6,45.5,219.6,44.9z"/>
				</g>
				<g>
					<path class="st1" d="M219.9,41.8c0-0.6,0.5-1,1.1-0.9c0.6,0,1,0.4,1,1s-0.5,1-1.1,0.9C220.3,42.8,219.9,42.4,219.9,41.8z"/>
				</g>
			</g>
		</g>
		<path class="st2" d="M194.4,30.7c0.4-0.4,3.1-2.4,3.3-2.7c0.2-0.4,0.2-0.9,0.3-1.4s0.2-0.6,0.4-1.2c0.1-0.3,0.1-0.5,0.2-0.4
			c0.2,0.1,0,1.1,0.1,1.3c0.1,0.1,0.3,0,0.7-0.2c0.4-0.1,0.4-0.1,0.8-0.4c0.1-0.1,0.5-0.6,0.8-0.7c0.1-0.1,0.3,0.2,0.3,0.4
			c0,0.2-0.5,0.9-0.6,1.1c-0.1,0.1-0.4,0.4-0.8,0.8c-0.4,0.4-0.5,0.5-1,1.1c-0.4,0.6-0.5,0.7-1.3,1.7"/>
	</g>
</g>
</svg>
