<?xml version="1.0" encoding="utf-8"?>
<!-- Generator: Adobe Illustrator 21.0.2, SVG Export Plug-In . SVG Version: 6.00 Build 0)  -->
<svg version="1.1" id="Layer_1" xmlns="http://www.w3.org/2000/svg" xmlns:xlink="http://www.w3.org/1999/xlink" x="0px" y="0px"
	 viewBox="0 0 310 310" style="enable-background:new 0 0 310 310;" xml:space="preserve">
<style type="text/css">
	.st0{fill:#90292A;}
	.st1{fill:#FFFFFF;}
	.st2{fill:none;}
	.st3{fill:none;stroke:#90292A;stroke-width:7.9752;stroke-miterlimit:10;}
</style>
<path class="st0" d="M154.6,64c23.5,0,46.9,8.9,64.9,26.7c17.8,18,26.7,41.4,26.7,64.9c0,23.5-8.9,46.9-26.7,64.9
	c-18,17.8-41.4,26.7-64.9,26.7c-23.5,0-46.9-8.9-64.9-26.7C71.9,202.5,63,179,63,155.6c0-23.5,8.9-46.9,26.7-64.9
	C107.7,72.9,131.1,64,154.6,64z"/>
<g>
	<path class="st1" d="M211.5,107.5c0.7,2.6-0.7-1.6-0.4-1.6c0.5,0,0.7,6.5,0.3,7c-1.3,2.1-4.2,5.1-6,7.2c-2.3,2.6-12.2,8.9-13.7,9
		c-1.5,0.1-2.9-0.9-3.4-1c-0.4-0.2-1.4-0.5-6.5-0.6c-5.1-0.2-8.4-2.1-8.4-2.1s-1.5,1.8-3.2,4.1c-1.8,2.3-5,4.3-5,4.3
		c-0.7,3.4-4.7,8.5-7,11.4c0,0,6.4-0.7,11.7,0c5.3,0.7,9.6,2.2,10.4,2.5c0.8,0.3,4.5,0.4,6,2c1.5,1.5,1.9,4.6,1.9,5.1
		c0.1,0.5,0.1,1.1,1.8,5c1.5,3.6,13.5,21.6,14.5,23.1c1,1.5,5.2,6.2,10.2,8.6c5,2.4,10,3.2,10.5,3.2c0.5,0,2.5,0.2,2.3,1
		c-0.3,0.8-2.9,1.2-6,1.2c-3.1,0-5.6-1.9-8.8-1.7c-3.2,0.1-6.3,1.5-8.7,1c-2.4-0.5-2-5.3-2.2-7.3c-0.2-2-0.9-2.7-4.7-6.1
		c-3.8-3.4-7.4-3.5-13.7-8.1c-6.3-4.6-3.2-14.7-4.6-15.5c-1.4-0.8-6.8,2.7-14.3,4.2c-7.5,1.5-13.2-0.3-13.2-0.3s-1.4,3.8-4.4,8.5
		c-3.1,4.7-9.2,12-9.8,13c-0.7,1-2.6,4.7-3.2,5.3c-0.6,0.6-2.6,0.8-3.2,0.8c-0.6,0-1.1,0-2.9,0.5c-1.8,0.5-6.4,2.6-11.8,4.8
		c-5.4,2.2-15.7,6.2-16.4,6.4c-0.7,0.2-1.9,1.3-2.6,3.1c-0.7,1.8-1.5,7.4-1.6,9c-0.1,1.6,2.1,5.7,2.3,6.1c0.3,0.4,2.5,1.3-0.5,1.7
		c-3,0.3-4.7-5.3-5.2-7.5c-0.6-2.1-1.3-3.1-3.4-5.1c-2.1-2-2.6-4.9-1.6-7.1c1-2.2,5-2.2,6.5-2.4c1.5-0.2,2-0.7,4.1-2.4
		c2.1-1.7,6.2-5.5,7.3-7.2c1.1-1.7,1.1-2.8,7.4-6.7c6.2-3.9,13.4-0.9,14.3-1.4c0.8-0.5-0.4-5.3,1.5-12.6c1.8-7.3,5.3-11.5,5.3-11.5
		s-3.5-3-1.2-10.6c2.2-7.2,9.5-10.5,9.5-10.5s1.6-4,1.6-7.2c-0.1-3.2,1-7.3,1-7.3c-0.2-1.5-0.5-1.2-0.6-4.2c-1.5,0.6-13.2,5.6-14,7
		c-0.2,0.4-0.1,2.7-1.2,4.8c-1.1,2.1-9.9,13.1-10.2,14.7c-0.3,1.6,0.6,3.5,0.9,5.3c0.3,1.9,0,2.5,0.5,4.8c0.2,1.1,0.5,1.9-0.3,1.8
		c-0.8-0.2-1.8-4.2-2.5-4.4c-0.7-0.2-1.1,0.6-2.5,1.6c-1.5,1.2-1.5,1.2-2.4,2.5c-0.3,0.4-1.2,2.9-1.9,3.6c-0.4,0.4-1.5-0.4-2-1.1
		c-0.5-0.7,0.3-3.9,0.9-4.8c0.4-0.6,0.9-2.1,1.8-3.9c1-1.9,0.9-2.7,2.1-5.2c1.2-2.6,1-3.1,2.6-7.9c1.7-4.8,3.6-9.1,4.3-10.5
		c1.7-3.4-0.8-2.9,4-6c3.5-2.2,5-6.8,16.1-11.8c0.5-0.2,3.1-2.2,4.7-3.2c5.5-3.5,11.8,1.2,13,1c0.8-0.1,3-3.6,3-3.6
		c-0.2,0.4-3.5-0.5-2.8-3.9c-0.9-1.6-0.1-5,1.4-6.9c1.1-1.1,1.7-3.7,4.2-4c1.6-1.6,1.7-1.5,3.9-1.1c0.8-0.8,2.5-1,5.4,0.5
		c4.6,0.6,2.7,1,4.1,2.1c0,0,2.2-0.4,3.7,1.9c0,0.5,2.3,1.9,2.1,2.3c-0.7,0.8,0.1,0.3-0.5,2.1c-0.3,0.9-1.4,1.3-2.4,1.5
		c-0.2,0-0.6,0.1-0.7,0.3c-0.1,0.2,0.2,0.9,0.3,1.1c0.1,0.3,1.6,5.6,1.4,5.9c-0.4,0.4-2.6-0.1-2.8-0.1c-0.2,0,0.1,0.3-0.2,0.8
		c-0.2,0.6-0.2,1.1-0.4,1.1c-0.2,0-0.3,0.8-0.3,1.2c0,0.4,0.4,0.5,0.4,1c0.1,1-0.8,1-1.2,1.2c-0.3,0.1-0.3,0.1-1,0.1
		c-1-0.1-1-0.4-2.4-0.7c-1.5-0.3-3.6-2.5-3.6-2.5s-0.7,3-0.7,3.4c0.1,0.4,1.2,0.7,2.6,1.2c2.4,0.9,4.7,1.1,6,1.6
		c0.9,0.4,1.8,1.7,2.6,2.2c0.8,0.6,2.9,0.7,5.5,2c2.7,1.3,6.2,4.2,7.2,4c1.1-0.2,4.9-3.1,7.3-4.8C201.8,114.8,211.3,107,211.5,107.5
		z"/>
</g>
<g>
	<path class="st2" d="M150.5,37.5c0.6,0,1.3,0,1.9,0c29.4-0.4,58.9,10.4,81.7,32.3c0.1,0.1,0.1,0.1,0.2,0.2c0.1,0.1,0.2,0.1,0.2,0.2
		c22.6,22.2,34.1,51.5,34.5,80.9c0,0.6,0,1.3,0,1.9c0,0.6,0,1.3,0,1.9c0.4,29.4-10.4,58.9-32.3,81.7c-0.1,0.1-0.1,0.1-0.2,0.2
		c-0.1,0.1-0.1,0.2-0.2,0.2c-22.2,22.6-51.5,34.1-80.9,34.5c-0.6,0-1.3,0-1.9,0c-0.6,0-1.3,0-1.9,0c-29.4,0.4-58.9-10.4-81.7-32.3
		c-0.1-0.1-0.2-0.1-0.2-0.2c-0.1-0.1-0.2-0.1-0.2-0.2c-22.6-22.2-34.1-51.5-34.5-80.9c0-0.6,0-1.3,0-1.9c0-0.6,0-1.3,0-1.9
		c-0.4-29.4,10.4-58.9,32.3-81.7c0.1-0.1,0.1-0.2,0.2-0.2c0.1-0.1,0.1-0.2,0.2-0.2c22.2-22.6,51.5-34.1,80.9-34.5
		C149.2,37.5,149.9,37.5,150.5,37.5z"/>
	<g>
		<path class="st0" d="M104.6,55.4c1.8,1.5,4,2.6,6.3,3.3c3.7,1.2,7.6,1.6,11.5,1.3c3.2-0.3,9.2-1.1,11.3-3.6
			c-2.8-4.1-9.1-6.3-13.7-7.5c-4.5-1.2-9.4-1.3-13.8,0.3c-1.7,0.6-3.5,1.8-3.4,3.6C103,53.8,103.8,54.7,104.6,55.4z"/>
		<path class="st0" d="M113.7,45.6c8.1-3.9,14.1-11.8,15.7-20.6c0,0,0,0,0-0.1c-4.7,0.8-9.3,2.4-13.3,4.9c-4,2.5-7.5,6.1-9.5,10.4
			C103.6,46.7,108.7,48.1,113.7,45.6z"/>
	</g>
	<path class="st0" d="M84.7,66.9c2.1,1.1,4.5,1.7,6.8,1.9c3.9,0.4,7.8,0,11.5-1.2c3-0.9,8.8-3,10.3-5.9c-3.6-3.4-10.2-4.2-14.9-4.5
		C93.8,57,89,58,85,60.5c-1.5,0.9-3,2.5-2.6,4.2C82.7,65.7,83.7,66.4,84.7,66.9z"/>
	<path class="st0" d="M91.5,55.4C98.6,50,102.8,41,102.6,32c0,0,0,0,0-0.1c-4.4,1.8-8.6,4.3-12,7.6c-3.4,3.3-6,7.5-7.1,12.1
		C81.9,58.6,87.1,58.9,91.5,55.4z"/>
	<path class="st0" d="M64.9,80.5c0.5,1,1.6,1.5,2.6,1.8c2.3,0.7,4.7,0.7,7.1,0.5c3.9-0.4,7.6-1.6,11-3.5c2.8-1.6,8-4.7,8.9-7.9
		c-4.2-2.6-10.9-2-15.5-1.3c-4.6,0.7-9.1,2.7-12.4,5.9C65.3,77.1,64.1,79,64.9,80.5z"/>
	<path class="st0" d="M71.8,69.7c5.8-6.9,8.1-16.5,6-25.2c0,0,0,0,0-0.1c-3.9,2.7-7.5,5.9-10.1,9.9c-2.6,3.9-4.3,8.6-4.4,13.4
		C63.1,74.8,68.2,73.9,71.8,69.7z"/>
	<path class="st0" d="M51.6,94.9c-1,1.5-1.7,3.5-0.6,4.9c0.7,0.8,1.9,1.1,2.9,1.2c2.4,0.2,4.8-0.3,7-1c3.7-1.2,7.1-3.2,10.1-5.8
		c2.4-2.1,6.8-6.3,7-9.6c-4.7-1.6-11.1,0.3-15.5,2C58.2,88.2,54.3,91,51.6,94.9z"/>
	<path class="st0" d="M55.5,87.7c4.2-7.9,4.5-17.8,0.6-25.9c0,0,0,0,0,0c-3.3,3.4-6.1,7.4-7.9,11.8c-1.8,4.4-2.5,9.3-1.5,14
		C48,94.5,52.9,92.6,55.5,87.7z"/>
	<path class="st0" d="M41.4,121.4c0.8,0.7,2,0.7,3.1,0.5c2.4-0.3,4.6-1.3,6.6-2.5c3.4-1.9,6.3-4.6,8.6-7.7c1.9-2.5,5.4-7.6,4.9-10.9
		c-4.9-0.6-10.8,2.6-14.7,5.2c-3.9,2.5-7.2,6.1-9,10.4C40.4,118.2,40.1,120.3,41.4,121.4z"/>
	<path class="st0" d="M43.3,108.7c2.5-8.6,0.6-18.4-4.8-25.5c0,0,0,0,0,0c-2.5,4-4.4,8.5-5.2,13.2c-0.8,4.7-0.5,9.6,1.4,14
		C37.4,116.9,41.8,114,43.3,108.7z"/>
	<path class="st0" d="M39.7,144.5c2.2-0.8,4.2-2.2,6-3.8c2.9-2.6,5.2-5.8,6.9-9.3c1.3-2.9,3.7-8.5,2.5-11.6
		c-4.9,0.4-10,4.8-13.3,8.1c-3.3,3.3-5.8,7.5-6.6,12.1c-0.3,1.7-0.2,3.9,1.4,4.7C37.5,145.1,38.7,144.9,39.7,144.5z"/>
	<path class="st0" d="M27.6,135.2c4.1,5.8,7.8,2.1,8.2-3.4c0.7-8.9-3.2-18.1-10-23.9c0,0,0,0,0,0c-1.6,4.5-2.6,9.2-2.4,14
		C23.5,126.5,24.9,131.3,27.6,135.2z"/>
	<path class="st0" d="M36.6,168.3c1,0.3,2.1-0.2,3.1-0.8c2-1.3,3.7-3,5.1-5c2.3-3.1,3.9-6.8,4.8-10.6c0.7-3.1,1.8-9.1,0-11.9
		c-4.7,1.4-8.8,6.8-11.3,10.7c-2.5,3.9-4.1,8.5-3.9,13.2C34.3,165.8,34.9,167.9,36.6,168.3z"/>
	<path class="st0" d="M25.9,161c5.2,4.9,8,0.5,7.3-5.1c-1.2-8.9-6.9-17-14.8-21.3c0,0,0,0,0,0c-0.6,4.7-0.6,9.6,0.6,14.2
		C20.1,153.4,22.4,157.7,25.9,161z"/>
	<path class="st0" d="M41.6,191.5c1.1,0.1,2.1-0.6,2.8-1.4c1.7-1.7,3-3.7,3.9-5.9c1.6-3.6,2.4-7.4,2.5-11.3c0-3.2-0.1-9.3-2.4-11.7
		c-4.3,2.4-7.2,8.4-8.9,12.8c-1.7,4.4-2.2,9.2-1.1,13.7C38.8,189.5,39.9,191.4,41.6,191.5z"/>
	<path class="st0" d="M29.6,186.5c6.1,3.7,8-1.2,6.1-6.5c-3-8.4-10.3-15.2-18.9-17.8c0,0,0,0-0.1,0c0.4,4.7,1.4,9.5,3.5,13.7
		C22.3,180.3,25.5,184.1,29.6,186.5z"/>
	<path class="st0" d="M51.3,213.1c1.1-0.2,1.9-1.1,2.5-2c1.3-2,2.1-4.3,2.6-6.6c0.8-3.8,0.8-7.8,0-11.6c-0.6-3.1-2-9-4.8-10.9
		c-3.8,3.2-5.3,9.7-6,14.4c-0.7,4.6-0.3,9.5,1.8,13.6C48.2,211.7,49.6,213.4,51.3,213.1z"/>
	<path class="st0" d="M43.1,203.2c-4.7-7.6-13.2-12.8-22.2-13.5c0,0,0,0-0.1,0c1.3,4.6,3.3,9,6.3,12.7c2.9,3.7,6.8,6.8,11.3,8.3
		C45.3,213.1,46,207.9,43.1,203.2z"/>
	<path class="st0" d="M60.9,230.1c1.1,1.4,2.8,2.7,4.4,2.1c1-0.4,1.6-1.4,2-2.4c0.9-2.2,1.2-4.6,1.2-7c0-3.9-0.8-7.8-2.4-11.3
		c-1.3-2.9-3.9-8.4-7-9.7c-3,3.9-3.1,10.6-2.9,15.3C56.5,221.8,58,226.5,60.9,230.1z"/>
	<path class="st0" d="M55.2,224.2c-6.2-6.5-15.6-9.7-24.5-8.6c0,0,0,0-0.1,0c2.2,4.2,5.1,8.1,8.8,11.1c3.7,3,8.1,5.2,12.8,5.8
		C59.4,233.5,59.1,228.2,55.2,224.2z"/>
	<path class="st0" d="M70.6,219.6c-2.1,4.5-0.9,11,0.4,15.6c1.2,4.5,3.6,8.7,7.2,11.8c1.3,1.1,3.3,2.1,4.8,1.1
		c0.9-0.6,1.3-1.7,1.5-2.8c0.4-2.3,0.2-4.8-0.3-7.1c-0.8-3.8-2.4-7.4-4.7-10.6C77.6,225,73.9,220.2,70.6,219.6z"/>
	<path class="st0" d="M70.3,251.1c7.1-0.6,5.7-5.7,1.1-8.8c-7.4-5-17.3-6.3-25.7-3.3c0,0,0,0-0.1,0c3.1,3.6,6.7,6.8,10.9,9.1
		C60.8,250.3,65.6,251.5,70.3,251.1z"/>
	<path class="st0" d="M95.8,240.6c-2.3-2.2-7-6.1-10.3-6c-1.2,4.8,1.5,11,3.6,15.2c2.1,4.1,5.3,7.8,9.4,10c1.5,0.8,3.7,1.4,4.9,0.1
		c0.8-0.8,0.9-2,0.9-3c-0.1-2.4-0.8-4.7-1.8-6.9C101,246.4,98.7,243.2,95.8,240.6z"/>
	<path class="st0" d="M91,256.6c-8.3-3.4-18.2-2.6-25.8,2.1c0,0,0,0,0,0c3.8,2.9,8,5.3,12.5,6.6c4.6,1.3,9.5,1.5,14.1,0.1
		C98.6,263.4,96.2,258.7,91,256.6z"/>
	<path class="st0" d="M121.2,268c1.7,0.5,3.9,0.6,4.8-0.9c0.6-0.9,0.5-2.1,0.2-3.2c-0.6-2.3-1.7-4.4-3.1-6.4
		c-2.3-3.1-5.2-5.8-8.6-7.8c-2.7-1.6-8.1-4.5-11.3-3.7c-0.1,4.9,3.7,10.4,6.7,14.1C112.8,263.8,116.8,266.7,121.2,268z"/>
	<path class="st0" d="M113.2,266.6c-8.8-1.6-18.3,1.3-24.8,7.5c0,0,0,0,0,0c4.3,2.1,8.9,3.5,13.6,3.8c4.7,0.3,9.6-0.5,13.8-2.9
		C122,271.6,118.7,267.5,113.2,266.6z"/>
	<path class="st0" d="M144.8,260.9c-2.9-2.6-6.3-4.6-10-5.8c-3-1-8.9-2.7-11.8-1.3c0.9,4.9,5.8,9.4,9.5,12.4c3.6,2.9,8.1,5,12.7,5.3
		c1.8,0.1,3.9-0.2,4.5-1.9c0.4-1,0-2.2-0.4-3.1C148.1,264.3,146.6,262.4,144.8,260.9z"/>
	<path class="st0" d="M136.9,271.7c-9,0.3-17.7,5.1-22.7,12.5c0,0,0,0,0,0c4.6,1.1,9.4,1.6,14.1,0.9c4.7-0.7,9.3-2.5,12.9-5.7
		C146.6,274.8,142.5,271.5,136.9,271.7z"/>
	<path class="st0" d="M184.5,60.5c3.9,0.3,7.8-0.1,11.5-1.3c2.3-0.7,4.4-1.8,6.3-3.3c0.8-0.7,1.6-1.6,1.7-2.7c0.1-1.8-1.7-3-3.4-3.5
		c-4.4-1.6-9.3-1.5-13.8-0.3c-4.6,1.2-10.9,3.5-13.7,7.5C175.3,59.5,181.3,60.3,184.5,60.5z"/>
	<path class="st0" d="M193.1,46.1c5,2.4,10.1,1.1,7-5.4c-2-4.3-5.5-7.8-9.5-10.4c-4-2.5-8.6-4-13.3-4.9c0,0,0,0,0,0.1
		C179,34.4,185,42.3,193.1,46.1z"/>
	<path class="st0" d="M221.9,60.8c-4-2.4-8.8-3.4-13.4-3.1c-4.7,0.3-11.4,1.1-14.9,4.5c1.6,2.9,7.3,4.9,10.4,5.9
		c3.7,1.1,7.7,1.5,11.5,1.1c2.4-0.3,4.7-0.8,6.8-1.9c1-0.5,1.9-1.2,2.2-2.3C224.9,63.3,223.4,61.8,221.9,60.8z"/>
	<path class="st0" d="M215.4,55.9c4.4,3.4,9.6,3.1,8-3.8c-1.1-4.6-3.7-8.8-7.2-12.1c-3.4-3.3-7.6-5.7-12-7.5c0,0,0,0,0,0.1
		C204,41.4,208.3,50.4,215.4,55.9z"/>
	<path class="st0" d="M212.5,71.7c0.9,3.2,6.1,6.4,8.9,7.9c3.4,1.9,7.2,3.1,11.1,3.5c2.4,0.2,4.8,0.2,7.1-0.5c1-0.3,2.1-0.8,2.6-1.8
		c0.8-1.6-0.4-3.4-1.7-4.6c-3.4-3.2-7.9-5.1-12.5-5.8C223.3,69.7,216.7,69.1,212.5,71.7z"/>
	<path class="st0" d="M243.7,67.9c-0.1-4.8-1.8-9.4-4.5-13.3c-2.7-3.9-6.3-7.2-10.2-9.8c0,0,0,0,0,0.1c-2.1,8.7,0.3,18.4,6.1,25.2
		C238.7,74.2,243.9,75,243.7,67.9z"/>
	<path class="st0" d="M229,84.9c0.2,3.3,4.7,7.5,7.1,9.6c2.9,2.5,6.4,4.5,10.1,5.7c2.3,0.7,4.6,1.2,7,1c1.1-0.1,2.3-0.3,2.9-1.2
		c1.1-1.4,0.3-3.4-0.7-4.9c-2.6-3.8-6.6-6.6-11-8.3C240,85.1,233.6,83.2,229,84.9z"/>
	<path class="st0" d="M260.4,87.7c0.9-4.7,0.2-9.6-1.6-14c-1.8-4.4-4.6-8.3-7.9-11.8c0,0,0,0,0,0c-3.8,8.1-3.6,18,0.7,25.9
		C254.2,92.8,259,94.7,260.4,87.7z"/>
	<path class="st0" d="M242.4,101.2c-0.5,3.3,3,8.3,4.9,10.8c2.3,3.1,5.3,5.7,8.7,7.7c2.1,1.2,4.3,2.1,6.7,2.4
		c1.1,0.1,2.3,0.1,3.1-0.6c1.4-1.1,1-3.3,0.4-4.9c-1.8-4.3-5.1-7.9-9-10.4C253.2,103.8,247.3,100.5,242.4,101.2z"/>
	<path class="st0" d="M272.5,110.5c1.8-4.4,2.2-9.3,1.3-14c-0.8-4.7-2.8-9.1-5.3-13.1c0,0,0,0,0,0c-5.4,7.1-7.2,16.9-4.7,25.5
		C265.4,114.2,269.8,117,272.5,110.5z"/>
	<path class="st0" d="M261.6,140.9c1.8,1.6,3.8,3,6,3.8c1,0.4,2.2,0.6,3.2,0.1c1.6-0.8,1.7-3,1.4-4.7c-0.8-4.6-3.4-8.8-6.7-12
		c-3.4-3.3-8.4-7.7-13.4-8.1c-1.1,3.1,1.2,8.8,2.6,11.6C256.3,135.1,258.7,138.3,261.6,140.9z"/>
	<path class="st0" d="M271.5,131.9c0.4,5.5,4.1,9.2,8.2,3.4c2.7-3.9,4.1-8.7,4.2-13.4c0.2-4.8-0.8-9.5-2.5-14c0,0,0,0,0,0
		C274.6,113.8,270.8,123,271.5,131.9z"/>
	<path class="st0" d="M270.8,168.5c1.7-0.5,2.3-2.6,2.3-4.3c0.1-4.7-1.5-9.3-4-13.2c-2.6-3.9-6.6-9.3-11.4-10.7
		c-1.8,2.8-0.6,8.8,0.1,11.9c0.9,3.8,2.5,7.4,4.8,10.5c1.4,1.9,3.1,3.7,5.1,4.9C268.7,168.3,269.8,168.8,270.8,168.5z"/>
	<path class="st0" d="M274.2,156c-0.7,5.5,2.1,9.9,7.3,5c3.5-3.3,5.8-7.6,6.9-12.3c1.1-4.6,1.2-9.5,0.5-14.2c0,0,0,0,0,0
		C281,139,275.4,147.1,274.2,156z"/>
	<path class="st0" d="M265.9,191.7c1.8-0.1,2.8-2,3.2-3.7c1.1-4.5,0.5-9.4-1.2-13.7c-1.7-4.4-4.6-10.5-8.9-12.8
		c-2.3,2.4-2.4,8.5-2.4,11.7c0.1,3.9,0.9,7.8,2.5,11.3c1,2.2,2.2,4.2,4,5.9C263.9,191,264.9,191.7,265.9,191.7z"/>
	<path class="st0" d="M290.6,162.3c-8.6,2.6-15.8,9.4-18.8,17.9c-1.9,5.2,0,10.1,6.1,6.4c4.1-2.5,7.2-6.3,9.3-10.5
		C289.3,171.8,290.3,167.1,290.6,162.3C290.6,162.3,290.6,162.3,290.6,162.3z"/>
	<path class="st0" d="M256.3,213.3c1.7,0.3,3.1-1.4,3.9-3c2-4.2,2.4-9.1,1.7-13.7c-0.8-4.7-2.3-11.2-6.1-14.4
		c-2.8,1.9-4.2,7.8-4.8,10.9c-0.7,3.8-0.7,7.8,0.1,11.6c0.5,2.3,1.3,4.6,2.6,6.6C254.5,212.3,255.3,213.2,256.3,213.3z"/>
	<path class="st0" d="M264.5,203.3c-2.9,4.7-2.1,9.9,4.6,7.6c4.5-1.6,8.4-4.6,11.3-8.4c2.9-3.8,4.9-8.2,6.2-12.7c0,0,0,0-0.1,0
		C277.6,190.5,269.2,195.7,264.5,203.3z"/>
	<path class="st0" d="M241.5,211.8c-1.5,3.6-2.3,7.5-2.3,11.4c0,2.4,0.3,4.8,1.2,7c0.4,1,1,2,2,2.4c1.6,0.6,3.3-0.7,4.4-2.1
		c2.8-3.7,4.3-8.4,4.5-13c0.2-4.7,0.1-11.4-2.9-15.3C245.3,203.3,242.7,208.8,241.5,211.8z"/>
	<path class="st0" d="M252.5,224.5c-3.8,4-4.1,9.2,3,8.3c4.7-0.6,9.2-2.8,12.8-5.8c3.6-3.1,6.5-7,8.7-11.2c0,0,0,0-0.1,0
		C268,214.6,258.7,218,252.5,224.5z"/>
	<path class="st0" d="M228.3,227.9c-2.2,3.2-3.8,6.8-4.6,10.6c-0.5,2.3-0.7,4.7-0.3,7.1c0.2,1.1,0.6,2.2,1.5,2.8
		c1.5,0.9,3.4,0,4.8-1.2c3.5-3,5.9-7.3,7.1-11.8c1.2-4.6,2.4-11.1,0.3-15.6C233.8,220.5,230.1,225.3,228.3,227.9z"/>
	<path class="st0" d="M236.4,242.6c-4.6,3.1-5.9,8.2,1.2,8.8c4.7,0.4,9.5-0.8,13.7-3.1c4.2-2.2,7.8-5.5,10.9-9.1c0,0,0,0-0.1,0
		C253.6,236.3,243.8,237.6,236.4,242.6z"/>
	<path class="st0" d="M209.3,260.2c4.1-2.2,7.3-5.9,9.4-10.1c2.1-4.2,4.7-10.4,3.5-15.2c-3.3-0.1-7.9,3.9-10.3,6
		c-2.8,2.7-5.2,5.9-6.7,9.4c-1,2.2-1.6,4.5-1.7,6.9c0,1.1,0.1,2.3,0.9,3C205.6,261.6,207.7,261,209.3,260.2z"/>
	<path class="st0" d="M216.8,257c-5.1,2.1-7.5,6.8-0.7,8.8c4.6,1.4,9.5,1.2,14.1-0.1c4.6-1.3,8.8-3.7,12.5-6.7c0,0,0,0,0,0
		C235,254.4,225.1,253.6,216.8,257z"/>
	<path class="st0" d="M193.3,250.3c-3.3,2-6.3,4.7-8.5,7.8c-1.4,1.9-2.5,4.1-3.1,6.4c-0.3,1.1-0.4,2.3,0.2,3.2
		c1,1.5,3.1,1.4,4.8,0.9c4.5-1.3,8.4-4.2,11.3-7.9c3-3.7,6.8-9.2,6.6-14.1C201.4,245.8,196,248.7,193.3,250.3z"/>
	<path class="st0" d="M194.7,267.1c-5.5,1-8.8,5.1-2.5,8.5c4.2,2.3,9,3.1,13.8,2.8c4.7-0.3,9.4-1.8,13.6-3.9c0,0,0,0,0,0
		C213.1,268.3,203.6,265.5,194.7,267.1z"/>
	<path class="st0" d="M184.9,254.3c-3-1.4-8.8,0.3-11.8,1.3c-3.7,1.3-7.1,3.3-10,5.9c-1.8,1.6-3.3,3.4-4.4,5.6
		c-0.5,1-0.8,2.1-0.4,3.1c0.6,1.6,2.8,2,4.5,1.9c4.6-0.4,9.1-2.4,12.7-5.4C179.2,263.7,184,259.2,184.9,254.3z"/>
	<path class="st0" d="M171,272.3c-5.6-0.2-9.6,3.1-4.2,7.8c3.6,3.1,8.2,4.9,12.9,5.6c4.7,0.7,9.5,0.2,14.1-1c0,0,0,0,0,0
		C188.7,277.3,180,272.5,171,272.3z"/>
</g>
<path class="st3" d="M154,6.2c0.8,0,1.6,0,2.3,0c37.5,0,75.1,14.2,103.8,42.7c0.1,0.1,0.2,0.2,0.3,0.3c0.1,0.1,0.2,0.2,0.3,0.3
	c28.4,28.8,42.7,66.3,42.7,103.8c0,0.8,0,1.6,0,2.3c0,0.8,0,1.6,0,2.3c0,37.5-14.2,75.1-42.7,103.8c-0.1,0.1-0.2,0.2-0.3,0.3
	c-0.1,0.1-0.2,0.2-0.3,0.3c-28.8,28.4-66.3,42.7-103.8,42.7c-0.8,0-1.6,0-2.3,0c-0.8,0-1.6,0-2.3,0c-37.5,0-75.1-14.2-103.8-42.7
	c-0.1-0.1-0.2-0.2-0.3-0.3c-0.1-0.1-0.2-0.2-0.3-0.3C18.8,233,4.6,195.4,4.6,157.9c0-0.8,0-1.6,0-2.3c0-0.8,0-1.6,0-2.4
	c0-37.5,14.2-75.1,42.7-103.8c0.1-0.1,0.2-0.2,0.3-0.3c0.1-0.1,0.2-0.2,0.3-0.3C76.6,20.4,114.1,6.1,151.7,6.1
	C152.4,6.1,153.2,6.2,154,6.2z"/>
<path class="st2" d="M154,12.3c0.8,0,1.6,0,2.4,0c36,0,71.9,13.6,99.5,40.9c0.1,0.1,0.2,0.2,0.3,0.3c0.1,0.1,0.2,0.2,0.3,0.3
	c27.3,27.6,40.9,63.5,40.9,99.5c0,0.8,0,1.6,0,2.3c0,0.8,0,1.6,0,2.3c0,36-13.6,71.9-40.9,99.5c-0.1,0.1-0.2,0.2-0.3,0.3
	c-0.1,0.1-0.2,0.2-0.3,0.3c-27.6,27.3-63.5,40.9-99.5,40.9c-0.8,0-1.6,0-2.3,0c-0.8,0-1.6,0-2.3,0c-36,0-71.9-13.6-99.5-40.9
	c-0.1-0.1-0.2-0.2-0.3-0.3c-0.1-0.1-0.2-0.2-0.3-0.3c-27.3-27.6-40.9-63.5-40.9-99.5c0-0.8,0-1.6,0-2.3c0-0.8,0-1.6,0-2.3
	c0-36,13.6-71.9,40.9-99.5c0.1-0.1,0.2-0.2,0.3-0.3c0.1-0.1,0.2-0.2,0.3-0.3c27.6-27.3,63.5-40.9,99.5-40.9
	C152.4,12.3,153.2,12.3,154,12.3z"/>
<g>
	<g>
		<g>
			<path class="st0" d="M260.3,52.9c1.8-1.6,4.1-1.5,5.6,0.1c1.5,1.7,1.3,3.9-0.4,5.5c-1.7,1.5-4,1.6-5.6-0.1
				C258.3,56.8,258.6,54.5,260.3,52.9z"/>
		</g>
		<g>
			<path class="st0" d="M268.6,62.4c1.9-1.4,4.2-1.2,5.5,0.6c1.4,1.8,1,4-0.9,5.4c-1.8,1.4-4.1,1.3-5.5-0.6
				C266.3,66,266.7,63.8,268.6,62.4z"/>
		</g>
		<g>
			<path class="st0" d="M276,72.5c2-1.3,4.3-0.8,5.5,1.1c1.2,1.9,0.6,4.1-1.4,5.3c-1.9,1.2-4.2,0.9-5.5-1.1
				C273.4,76,274,73.8,276,72.5z"/>
		</g>
		<g>
			<path class="st0" d="M282.5,83.3c2.1-1.1,4.3-0.4,5.3,1.6c1,2,0.3,4.1-1.9,5.2c-2,1.1-4.3,0.5-5.3-1.6
				C279.6,86.6,280.4,84.4,282.5,83.3z"/>
		</g>
		<g>
			<path class="st0" d="M288,94.7c2.2-0.9,4.3,0,5.2,2c0.8,2.1-0.1,4.1-2.3,5c-2.1,0.9-4.3,0.2-5.2-2
				C284.9,97.6,285.9,95.5,288,94.7z"/>
		</g>
		<g>
			<path class="st0" d="M292.6,106.4c2.3-0.7,4.3,0.3,5,2.5c0.7,2.1-0.5,4.1-2.7,4.8c-2.2,0.7-4.3-0.2-5-2.5
				C289.2,109.1,290.4,107.1,292.6,106.4z"/>
		</g>
		<g>
			<path class="st0" d="M296,118.5c2.3-0.5,4.3,0.7,4.8,2.9c0.5,2.2-0.8,4-3.1,4.5c-2.3,0.5-4.3-0.6-4.8-2.9
				C292.4,120.9,293.8,119,296,118.5z"/>
		</g>
		<g>
			<path class="st0" d="M298.5,130.9c2.3-0.3,4.2,1.1,4.5,3.3c0.3,2.2-1.2,4-3.5,4.3c-2.3,0.3-4.2-0.9-4.5-3.3
				C294.7,132.9,296.2,131.2,298.5,130.9z"/>
		</g>
		<g>
			<path class="st0" d="M299.8,143.4c2.4-0.1,4.1,1.4,4.2,3.7c0.1,2.2-1.5,3.8-3.9,3.9c-2.3,0.1-4.1-1.3-4.2-3.7
				C295.8,145.1,297.5,143.5,299.8,143.4z"/>
		</g>
	</g>
	<g>
		<g>
			<path class="st0" d="M51.4,49.3c-1.6-1.8-1.5-4.1,0.1-5.6c1.7-1.5,3.9-1.3,5.5,0.4c1.6,1.7,1.6,4-0.1,5.6
				C55.2,51.2,52.9,51,51.4,49.3z"/>
		</g>
		<g>
			<path class="st0" d="M60.8,41c-1.4-1.9-1.2-4.2,0.6-5.5c1.8-1.4,4-1,5.4,0.9c1.4,1.8,1.3,4.1-0.6,5.5
				C64.5,43.3,62.2,42.8,60.8,41z"/>
		</g>
		<g>
			<path class="st0" d="M71,33.6c-1.3-2-0.8-4.3,1.1-5.5c1.9-1.2,4.1-0.6,5.3,1.4c1.2,1.9,0.9,4.2-1.1,5.5
				C74.4,36.2,72.2,35.5,71,33.6z"/>
		</g>
		<g>
			<path class="st0" d="M81.8,27.1c-1.1-2.1-0.4-4.3,1.6-5.3c2-1,4.1-0.3,5.2,1.9c1.1,2,0.5,4.3-1.6,5.3
				C85,29.9,82.8,29.1,81.8,27.1z"/>
		</g>
		<g>
			<path class="st0" d="M93.1,21.5c-0.9-2.2,0-4.3,2-5.2c2.1-0.8,4.1,0.1,5,2.3c0.9,2.1,0.2,4.3-2,5.2C96,24.7,94,23.7,93.1,21.5z"
				/>
		</g>
		<g>
			<path class="st0" d="M104.9,17c-0.7-2.3,0.3-4.3,2.5-5c2.1-0.7,4.1,0.5,4.8,2.7c0.7,2.2-0.2,4.3-2.5,5
				C107.5,20.4,105.5,19.2,104.9,17z"/>
		</g>
		<g>
			<path class="st0" d="M117,13.5c-0.5-2.3,0.7-4.3,2.9-4.8c2.2-0.5,4,0.8,4.5,3.1c0.5,2.3-0.6,4.3-2.9,4.8
				C119.3,17.1,117.5,15.8,117,13.5z"/>
		</g>
		<g>
			<path class="st0" d="M129.3,11.1c-0.3-2.3,1.1-4.2,3.3-4.5c2.2-0.3,4,1.2,4.3,3.5c0.3,2.3-0.9,4.2-3.3,4.5
				C131.4,14.9,129.6,13.4,129.3,11.1z"/>
		</g>
		<g>
			<path class="st0" d="M142.9,9.7c-0.1-2.4,1.4-4.1,3.7-4.2c2.2-0.1,3.8,1.5,3.9,3.9c0.1,2.3-1.3,4.1-3.7,4.2
				C144.6,13.7,142.9,12,142.9,9.7z"/>
		</g>
	</g>
	<g>
		<g>
			<path class="st0" d="M47.7,258.2c-1.8,1.6-4.1,1.5-5.6-0.1c-1.5-1.7-1.3-3.9,0.4-5.5c1.7-1.6,4-1.6,5.6,0.1
				C49.7,254.4,49.4,256.7,47.7,258.2z"/>
		</g>
		<g>
			<path class="st0" d="M39.4,248.7c-1.9,1.4-4.2,1.2-5.5-0.6c-1.4-1.8-1-4,0.9-5.4c1.8-1.4,4.1-1.3,5.5,0.6
				C41.7,245.1,41.3,247.3,39.4,248.7z"/>
		</g>
		<g>
			<path class="st0" d="M32,238.6c-2,1.3-4.3,0.8-5.5-1.1c-1.2-1.9-0.6-4.1,1.4-5.3c1.9-1.2,4.2-0.9,5.5,1.1
				C34.6,235.1,34,237.3,32,238.6z"/>
		</g>
		<g>
			<path class="st0" d="M25.5,227.8c-2.1,1.1-4.3,0.4-5.3-1.6c-1-2-0.3-4.1,1.9-5.2c2-1.1,4.3-0.5,5.3,1.6
				C28.4,224.6,27.6,226.7,25.5,227.8z"/>
		</g>
		<g>
			<path class="st0" d="M20,216.5c-2.2,0.9-4.3,0-5.2-2c-0.8-2.1,0.1-4.1,2.3-5c2.1-0.9,4.3-0.2,5.2,2
				C23.1,213.5,22.1,215.6,20,216.5z"/>
		</g>
		<g>
			<path class="st0" d="M15.4,204.7c-2.3,0.7-4.3-0.3-5-2.5c-0.7-2.1,0.5-4.1,2.7-4.8c2.2-0.7,4.3,0.2,5,2.5
				C18.8,202,17.6,204,15.4,204.7z"/>
		</g>
		<g>
			<path class="st0" d="M12,192.6c-2.3,0.5-4.3-0.7-4.8-2.9c-0.5-2.2,0.8-4,3.1-4.5c2.3-0.5,4.3,0.6,4.8,2.9
				C15.6,190.2,14.2,192.1,12,192.6z"/>
		</g>
		<g>
			<path class="st0" d="M9.5,180.2c-2.3,0.3-4.2-1.1-4.5-3.3c-0.3-2.2,1.2-4,3.5-4.3c2.3-0.3,4.2,0.9,4.5,3.3
				C13.3,178.2,11.8,179.9,9.5,180.2z"/>
		</g>
		<g>
			<path class="st0" d="M8.2,167.7c-2.4,0.1-4.1-1.4-4.2-3.7c-0.1-2.2,1.5-3.8,3.9-3.9c2.3-0.1,4.1,1.3,4.2,3.7
				C12.2,166,10.5,167.6,8.2,167.7z"/>
		</g>
	</g>
	<g>
		<g>
			<path class="st0" d="M256.7,261.9c1.6,1.8,1.5,4.1-0.1,5.6c-1.7,1.5-3.9,1.3-5.5-0.4c-1.6-1.7-1.6-4,0.1-5.6
				C252.8,259.9,255.1,260.1,256.7,261.9z"/>
		</g>
		<g>
			<path class="st0" d="M247.2,270.1c1.4,1.9,1.2,4.2-0.6,5.5c-1.8,1.4-4,1-5.4-0.9c-1.4-1.8-1.3-4.1,0.6-5.5
				C243.5,267.8,245.8,268.3,247.2,270.1z"/>
		</g>
		<g>
			<path class="st0" d="M237,277.5c1.3,2,0.8,4.3-1.1,5.5c-1.9,1.2-4.1,0.6-5.3-1.4c-1.2-1.9-0.9-4.2,1.1-5.5
				C233.6,274.9,235.8,275.6,237,277.5z"/>
		</g>
		<g>
			<path class="st0" d="M226.2,284c1.1,2.1,0.4,4.3-1.6,5.3c-2,1-4.1,0.3-5.2-1.9c-1.1-2-0.5-4.3,1.6-5.3
				C223,281.2,225.2,282,226.2,284z"/>
		</g>
		<g>
			<path class="st0" d="M214.9,289.6c0.9,2.2,0,4.3-2,5.2c-2.1,0.9-4.1-0.1-5-2.3c-0.9-2.1-0.2-4.3,2-5.2
				C212,286.4,214,287.4,214.9,289.6z"/>
		</g>
		<g>
			<path class="st0" d="M203.1,294.1c0.7,2.3-0.3,4.3-2.5,5c-2.1,0.7-4.1-0.5-4.8-2.7c-0.7-2.2,0.2-4.3,2.5-5
				C200.5,290.7,202.5,291.9,203.1,294.1z"/>
		</g>
		<g>
			<path class="st0" d="M191,297.6c0.5,2.3-0.7,4.3-2.9,4.8c-2.2,0.5-4-0.8-4.5-3.1c-0.5-2.3,0.6-4.3,2.9-4.8
				C188.7,294,190.6,295.3,191,297.6z"/>
		</g>
		<g>
			<path class="st0" d="M178.7,300c0.3,2.3-1.1,4.2-3.3,4.5c-2.2,0.3-4-1.2-4.3-3.5c-0.3-2.3,0.9-4.2,3.3-4.5
				C176.6,296.2,178.4,297.7,178.7,300z"/>
		</g>
		<g>
			<path class="st0" d="M165.1,301.4c0.1,2.4-1.4,4.1-3.7,4.2c-2.2,0.1-3.8-1.5-3.9-3.9c-0.1-2.3,1.3-4.1,3.7-4.2
				C163.4,297.4,165.1,299.1,165.1,301.4z"/>
		</g>
	</g>
	<g>
		<g>
			<path class="st0" d="M251.1,49.7c-1.8-1.6-1.7-3.9-0.1-5.6c1.6-1.8,3.9-1.9,5.5-0.4c1.7,1.5,1.7,3.8,0.1,5.6
				C255.1,51,252.8,51.2,251.1,49.7z"/>
		</g>
		<g>
			<path class="st0" d="M241.7,41.9c-1.9-1.4-2-3.7-0.6-5.5c1.4-1.9,3.7-2.3,5.4-0.9c1.8,1.4,2,3.7,0.6,5.5
				C245.8,42.8,243.5,43.3,241.7,41.9z"/>
		</g>
		<g>
			<path class="st0" d="M231.7,35c-2-1.3-2.3-3.5-1.1-5.5c1.3-2,3.5-2.6,5.3-1.4c1.9,1.2,2.4,3.5,1.1,5.5
				C235.8,35.5,233.6,36.2,231.7,35z"/>
		</g>
		<g>
			<path class="st0" d="M221,28.9c-2.1-1.1-2.6-3.3-1.6-5.3c1.1-2.1,3.2-2.9,5.2-1.9c2,1,2.6,3.2,1.6,5.3
				C225.2,29.1,223,29.9,221,28.9z"/>
		</g>
		<g>
			<path class="st0" d="M209.9,23.8c-2.2-0.9-2.9-3.1-2-5.2c0.9-2.2,2.9-3.2,5-2.3c2.1,0.8,2.9,3,2,5.2
				C214,23.7,212,24.7,209.9,23.8z"/>
		</g>
		<g>
			<path class="st0" d="M198.3,19.7c-2.3-0.7-3.2-2.8-2.5-5c0.7-2.3,2.7-3.4,4.8-2.7c2.1,0.7,3.2,2.7,2.5,5
				C202.5,19.2,200.5,20.4,198.3,19.7z"/>
		</g>
		<g>
			<path class="st0" d="M186.5,16.7c-2.3-0.5-3.4-2.5-2.9-4.8c0.5-2.3,2.4-3.6,4.5-3.1c2.2,0.5,3.4,2.4,2.9,4.8
				C190.6,15.8,188.7,17.1,186.5,16.7z"/>
		</g>
		<g>
			<path class="st0" d="M174.4,14.6c-2.3-0.3-3.6-2.2-3.3-4.5c0.3-2.4,2-3.8,4.3-3.5c2.2,0.3,3.6,2.1,3.3,4.5
				C178.4,13.4,176.6,14.9,174.4,14.6z"/>
		</g>
		<g>
			<path class="st0" d="M161.2,13.6c-2.4-0.1-3.8-1.9-3.7-4.2c0.1-2.4,1.7-4,3.9-3.9c2.2,0.1,3.8,1.8,3.7,4.2
				C165.1,12,163.4,13.7,161.2,13.6z"/>
		</g>
	</g>
	<g>
		<g>
			<path class="st0" d="M48.1,58.4c-1.6,1.8-3.9,1.7-5.6,0.1c-1.8-1.6-1.9-3.9-0.4-5.5c1.5-1.7,3.8-1.7,5.6-0.1
				C49.4,54.5,49.7,56.8,48.1,58.4z"/>
		</g>
		<g>
			<path class="st0" d="M40.4,67.8c-1.4,1.9-3.7,2-5.5,0.6c-1.9-1.4-2.3-3.7-0.9-5.4c1.4-1.8,3.7-2,5.5-0.6
				C41.3,63.8,41.7,66,40.4,67.8z"/>
		</g>
		<g>
			<path class="st0" d="M33.4,77.9c-1.3,2-3.5,2.3-5.5,1.1c-2-1.3-2.6-3.5-1.4-5.3c1.2-1.9,3.5-2.4,5.5-1.1
				C34,73.8,34.6,76,33.4,77.9z"/>
		</g>
		<g>
			<path class="st0" d="M27.4,88.5c-1.1,2.1-3.3,2.6-5.3,1.6c-2.1-1.1-2.9-3.2-1.9-5.2c1-2,3.2-2.6,5.3-1.6
				C27.6,84.4,28.4,86.6,27.4,88.5z"/>
		</g>
		<g>
			<path class="st0" d="M22.3,99.7c-0.9,2.2-3.1,2.9-5.2,2c-2.2-0.9-3.1-3-2.3-5c0.8-2.1,3-2.9,5.2-2C22.1,95.5,23.1,97.6,22.3,99.7
				z"/>
		</g>
		<g>
			<path class="st0" d="M18.2,111.2c-0.7,2.3-2.8,3.2-5,2.5c-2.3-0.7-3.4-2.7-2.7-4.8c0.7-2.1,2.7-3.2,5-2.5
				C17.6,107.1,18.8,109.1,18.2,111.2z"/>
		</g>
		<g>
			<path class="st0" d="M15.1,123.1c-0.5,2.3-2.5,3.4-4.8,2.9c-2.3-0.5-3.6-2.4-3.1-4.5c0.5-2.2,2.4-3.4,4.8-2.9
				C14.2,119,15.6,120.9,15.1,123.1z"/>
		</g>
		<g>
			<path class="st0" d="M13.1,135.1c-0.3,2.4-2.2,3.6-4.5,3.3c-2.4-0.3-3.8-2-3.5-4.3c0.3-2.2,2.1-3.6,4.5-3.3
				C11.8,131.2,13.3,132.9,13.1,135.1z"/>
		</g>
		<g>
			<path class="st0" d="M12.1,147.4c-0.1,2.4-1.9,3.8-4.2,3.7c-2.4-0.1-4-1.7-3.9-3.9c0.1-2.2,1.8-3.8,4.2-3.7
				C10.5,143.5,12.2,145.1,12.1,147.4z"/>
		</g>
	</g>
	<g>
		<g>
			<path class="st0" d="M56.9,261.4c1.8,1.6,1.7,3.9,0.1,5.6c-1.6,1.7-3.9,1.9-5.5,0.4c-1.7-1.5-1.7-3.8-0.1-5.6
				C52.9,260.1,55.2,259.9,56.9,261.4z"/>
		</g>
		<g>
			<path class="st0" d="M66.3,269.2c1.9,1.4,2,3.7,0.6,5.5c-1.4,1.9-3.7,2.3-5.4,0.9c-1.8-1.4-2-3.6-0.6-5.5
				C62.2,268.3,64.5,267.8,66.3,269.2z"/>
		</g>
		<g>
			<path class="st0" d="M76.3,276.1c2,1.3,2.3,3.5,1.1,5.5c-1.3,2-3.5,2.6-5.3,1.4c-1.9-1.2-2.4-3.5-1.1-5.5
				C72.2,275.6,74.4,274.9,76.3,276.1z"/>
		</g>
		<g>
			<path class="st0" d="M87,282.2c2.1,1.1,2.6,3.3,1.6,5.3c-1.1,2.1-3.2,2.9-5.2,1.9c-2-1-2.7-3.2-1.6-5.3
				C82.8,282,85,281.2,87,282.2z"/>
		</g>
		<g>
			<path class="st0" d="M98.1,287.3c2.2,0.9,2.9,3.1,2,5.2c-0.9,2.2-3,3.1-5,2.3c-2.1-0.8-2.9-3-2-5.2C94,287.4,96,286.4,98.1,287.3
				z"/>
		</g>
		<g>
			<path class="st0" d="M109.7,291.4c2.3,0.7,3.2,2.8,2.5,5c-0.7,2.3-2.7,3.4-4.8,2.7c-2.1-0.7-3.2-2.7-2.5-5
				C105.5,291.9,107.5,290.7,109.7,291.4z"/>
		</g>
		<g>
			<path class="st0" d="M121.5,294.5c2.3,0.5,3.4,2.5,2.9,4.8c-0.5,2.3-2.4,3.6-4.5,3.1c-2.2-0.5-3.4-2.4-2.9-4.8
				C117.5,295.3,119.3,294,121.5,294.5z"/>
		</g>
		<g>
			<path class="st0" d="M133.6,296.5c2.3,0.3,3.6,2.2,3.3,4.5c-0.3,2.3-2,3.8-4.3,3.5c-2.2-0.3-3.6-2.1-3.3-4.5
				C129.6,297.7,131.4,296.2,133.6,296.5z"/>
		</g>
		<g>
			<path class="st0" d="M146.8,297.5c2.4,0.1,3.8,1.9,3.7,4.2c-0.1,2.4-1.7,4-3.9,3.9c-2.2-0.1-3.8-1.8-3.7-4.2
				C142.9,299.1,144.6,297.4,146.8,297.5z"/>
		</g>
	</g>
	<g>
		<g>
			<path class="st0" d="M259.9,252.7c1.6-1.8,3.9-1.7,5.6-0.1c1.8,1.6,1.9,3.9,0.4,5.5c-1.5,1.7-3.8,1.7-5.6,0.1
				C258.6,256.7,258.3,254.4,259.9,252.7z"/>
		</g>
		<g>
			<path class="st0" d="M267.6,243.3c1.4-1.9,3.7-2,5.5-0.6c1.9,1.4,2.3,3.7,0.9,5.4c-1.4,1.8-3.6,2-5.5,0.6
				C266.7,247.3,266.3,245.1,267.6,243.3z"/>
		</g>
		<g>
			<path class="st0" d="M274.6,233.2c1.3-2,3.5-2.3,5.5-1.1c2,1.3,2.6,3.5,1.4,5.3c-1.2,1.9-3.5,2.4-5.5,1.1
				C274,237.3,273.4,235.1,274.6,233.2z"/>
		</g>
		<g>
			<path class="st0" d="M280.6,222.6c1.1-2.1,3.3-2.6,5.3-1.6c2.1,1.1,2.9,3.2,1.9,5.2c-1,2-3.2,2.6-5.3,1.6
				C280.4,226.7,279.6,224.6,280.6,222.6z"/>
		</g>
		<g>
			<path class="st0" d="M285.7,211.4c0.9-2.2,3.1-2.9,5.2-2c2.2,0.9,3.1,3,2.3,5c-0.8,2.1-3,2.9-5.2,2
				C285.9,215.6,284.9,213.5,285.7,211.4z"/>
		</g>
		<g>
			<path class="st0" d="M289.8,199.9c0.7-2.3,2.8-3.2,5-2.5c2.3,0.7,3.4,2.7,2.7,4.8c-0.7,2.1-2.7,3.2-5,2.5
				C290.4,204,289.2,202,289.8,199.9z"/>
		</g>
		<g>
			<path class="st0" d="M292.9,188c0.5-2.3,2.5-3.4,4.8-2.9c2.3,0.5,3.6,2.4,3.1,4.5c-0.5,2.2-2.4,3.4-4.8,2.9
				C293.8,192.1,292.4,190.2,292.9,188z"/>
		</g>
		<g>
			<path class="st0" d="M294.9,176c0.3-2.3,2.2-3.6,4.5-3.3c2.3,0.3,3.8,2,3.5,4.3c-0.3,2.2-2.1,3.6-4.5,3.3
				C296.2,179.9,294.7,178.2,294.9,176z"/>
		</g>
		<g>
			<path class="st0" d="M295.9,163.7c0.1-2.4,1.9-3.8,4.2-3.7c2.4,0.1,4,1.7,3.9,3.9c-0.1,2.2-1.8,3.8-4.2,3.7
				C297.5,167.6,295.8,166,295.9,163.7z"/>
		</g>
	</g>
</g>
<path class="st1" d="M195.2,120c1.8-1.6,12.2-9.3,13.1-10.7c0.9-1.4,0.8-3.5,1.3-5.3c0.5-1.8,1-2.4,1.4-4.7c0.2-1.1,0.3-2,0.9-1.6
	c0.6,0.4-0.1,4.5,0.3,5c0.5,0.4,1.2-0.2,2.7-0.7c1.7-0.6,1.7-0.6,3-1.6c0.4-0.3,2.1-2.3,3-2.8c0.5-0.2,1.1,0.8,1.3,1.7
	c0.2,0.9-1.8,3.6-2.6,4.2c-0.5,0.4-1.5,1.7-3.1,3.1c-1.6,1.5-2.2,1.9-3.8,4.2c-1.5,2.2-2,2.6-5.3,6.5"/>
</svg>
